<svg xmlns="http://www.w3.org/2000/svg" viewBox="0 0 205.35 89.11"><defs><style>.cls-1{fill:#f4a142;}.cls-2{fill:#935515;}.cls-3{fill:#b2702f;}.cls-4{fill:#ce8b49;}.cls-5{fill:#c17938;}</style></defs><title>BOTTOM_BUN</title><g id="Layer_2" data-name="Layer 2"><g id="BOTTOM_BUN"><path class="cls-1" d="M205.35,47c0,23.27-45.88,42.13-102.47,42.13S.41,70.25.41,47c0-6.85-.92-18.91,0-18.91,83.9-.4,167.59,0,204.94,0Z"/><path class="cls-2" d="M102.68,57C42.16,57,1.5,42.64,1.5,29.24S42.16,1.5,102.68,1.5,203.85,15.85,203.85,29.24,163.2,57,102.68,57Z"/><path class="cls-3" d="M102.68,3c27.15,0,52.64,3,71.78,8.45,17.46,5,27.89,11.63,27.89,17.79S191.92,42.06,174.46,47c-19.14,5.45-44.63,8.45-71.78,8.45S50,52.49,30.89,47C13.43,42.06,3,35.41,3,29.24S13.43,16.43,30.89,11.45C50,6,75.52,3,102.68,3m0-3C46,0,0,13.09,0,29.24S46,58.49,102.68,58.49,205.35,45.4,205.35,29.24,159.38,0,102.68,0Z"/><ellipse class="cls-4" cx="100.09" cy="29.65" rx="83.2" ry="22.92"/><path class="cls-2" d="M100.09,8.23c22.35,0,43.33,2.5,59.06,7,16.69,4.81,22.64,10.59,22.64,14.39S175.84,39.22,159.15,44c-15.73,4.54-36.71,7-59.06,7S56.77,48.57,41,44C24.34,39.22,18.4,33.44,18.4,29.65S24.34,20.07,41,15.26c15.74-4.53,36.71-7,59.06-7m0-3C53.32,5.23,15.4,16.16,15.4,29.65s37.92,24.41,84.69,24.41,84.7-10.93,84.7-24.41S146.87,5.23,100.09,5.23Z"/><ellipse class="cls-4" cx="100.09" cy="29.65" rx="61.23" ry="16.58"/><path class="cls-5" d="M100.09,14.56c16.48,0,31.94,1.84,43.53,5.18,12,3.45,16.2,7.49,16.2,9.91s-4.24,6.45-16.2,9.9c-11.59,3.34-27.05,5.18-43.53,5.18s-31.94-1.84-43.52-5.18c-12-3.45-16.21-7.49-16.21-9.9s4.25-6.46,16.21-9.91c11.58-3.34,27-5.18,43.52-5.18m0-3c-34.64,0-62.73,8.1-62.73,18.09s28.09,18.08,62.73,18.08,62.73-8.1,62.73-18.08-28.08-18.09-62.73-18.09Z"/></g></g></svg>