<svg xmlns="http://www.w3.org/2000/svg" viewBox="0 0 238.84 89.8"><defs><style>.cls-1{fill:#f7b32f;}.cls-2{fill:#f7bc2f;}</style></defs><title>CHEESE</title><g id="Layer_2" data-name="Layer 2"><g id="CHEESE"><path class="cls-1" d="M111.89,88.15,96.7,77.91a4,4,0,0,0-.89-.47L24.35,50.66a5.51,5.51,0,0,0-1.26-.3c-10.41-1.1-7.7,2.88-18.07.41L.32,49.7c-3.7-1.38,25.8-21,30.79-24.83A5,5,0,0,1,33,24L73.56,12.61c.67-.2,43.3-11.42,44-11.3,8.51,1.48,57.59,3.38,94.77,18.74a173.31,173.31,0,0,1,24.09,12.8,5.16,5.16,0,0,1-2.5,9.52h-.19c-1.95.12-24.92,6.22-40.06,10.3a127.69,127.69,0,0,0-25.21,9.75L144.17,74.92a7.59,7.59,0,0,1-.82.37,63.47,63.47,0,0,0-16.88,9.84l-3.09,2.52A9.67,9.67,0,0,1,111.89,88.15Z"/><path class="cls-2" d="M111,80.43,96.93,70.94a4.35,4.35,0,0,0-.83-.43L29.92,45.71a5.17,5.17,0,0,0-1.16-.28c-9.65-1-7.13,2.66-16.74.38l-4.35-1c-3.43-1.28,23.89-19.42,28.51-23A4.75,4.75,0,0,1,37.93,21l37.56-10.5c.63-.19,40.1-10.58,40.74-10.47,7.89,1.37,53.33,3.13,87.77,17.35a160.2,160.2,0,0,1,22.31,11.87A4.77,4.77,0,0,1,224,38h-.18c-1.8.11-23.07,5.76-37.1,9.54a117.68,117.68,0,0,0-23.34,9L140.89,68.17c-.25.13-.5.24-.76.35a58.5,58.5,0,0,0-15.64,9.11L121.63,80A9,9,0,0,1,111,80.43Z"/></g></g></svg>