<svg xmlns="http://www.w3.org/2000/svg" viewBox="0 0 182.28 50.78"><defs><style>.cls-1{fill:#d39e1a;stroke:#d1b333;stroke-linejoin:bevel;stroke-width:0.75px;}</style></defs><title>FRIED_ONION</title><g id="Layer_2" data-name="Layer 2"><g id="FRIED_ONION"><path class="cls-1" d="M134.52,33.27s2.49,1.55,3.38,1.55a1.19,1.19,0,0,1,1.14.53c-.13.29.94.78,1.08.49,1.16.53,7.06-2.49,8.95-4.38a.43.43,0,0,1-.15-.36,10.21,10.21,0,0,1,4.69-2.29c.44.44,2.56-1.94,2.83-2.21.4.39.84-.59.88-.55a4.32,4.32,0,0,1,.93-.72s.36-.44.45-.35.36-.37.37-.38.06-.36.14-.23.54-.26.51-.32.35-.37.53-.55l.9-1c-.09-.1.48-.35.4-.43.24-.27.52-.63.79-1-.24-.24.94-1.22,1.07-1.09.47-.42,3.27-3.89,3.27-3.89-.21-.39-2.23.36-3.27-.67-1,1.11-1.74,1.23-5.5,3.42-1.71,1-5.33,6.64-6.36,4.78l-5.83,3.44c-2.22,2.56-4.81,2.18-4.84,2.44-.09.78-5,2.9-4.42,2.79S135,33.06,134.52,33.27Z"/><path class="cls-1" d="M52.45,22.35a23.93,23.93,0,0,0,3,2.94c.91.57,1,1,1,1-.23.06.71,1,.94.94,1,1,8,3.32,10.49,3.6-.08-.13-.09-.22,0-.27a36.59,36.59,0,0,1,5.13.88c.42.42,4.94-.57,5.29-.67.43.31,1.06-.15,1.1-.13a5.88,5.88,0,0,1,1.18-.2s.48-.18.57-.11.47-.13.48-.13.11-.2.19-.11a1.52,1.52,0,0,0,.63-.07c-.06-.08.46-.14.69-.21l1.17-.36c-.1-.07.6-.09.52-.16.31-.1.68-.24,1-.39-.26-.19,1.24-.49,1.38-.39.6-.15,4.29-1.52,4.29-1.52-.21-.27-2.69-.27-3.81-1.09-1.35.42-2.19.33-6.89.78-2.13.2-7.5,3.49-8,1.92l-7-2.06c-3.05-.17-5.57-2-5.69-1.91-.33.32-6-1.79-5.38-1.48A15.15,15.15,0,0,1,52.45,22.35Z"/><path class="cls-1" d="M67.45,23.23a22.56,22.56,0,0,1,2.66,1c.65.38.9.34.9.34s.79.19.85.32a34.15,34.15,0,0,1,6,5c-.1,0-.14,0-.15,0,.84.94,2.37,2.55,2.51,2.61.38.14,1.71,2.8,1.8,3,.33.17.35.61.38.63a3.93,3.93,0,0,0,.38.68s.1.3.17.33.13.29.13.29,0,.1,0,.13.26.37.22.36.12.28.18.41l.29.72c-.07,0,.2.34.13.31.08.19.15.43.23.65-.21-.1.25.78.35.83.18.36,1,2.65,1,2.65-.22-.06-1.22-1.41-2.08-1.85A33.57,33.57,0,0,0,81,37.76c-.76-1.2-1.29-4.8-2.26-4.74l-3.86-3.39a15.24,15.24,0,0,0-3.25-2.7,38.13,38.13,0,0,0-2.91-2.62A15.17,15.17,0,0,0,67.45,23.23Z"/><path class="cls-1" d="M72.79,42.81a15.22,15.22,0,0,0-1.56-3.22,1.42,1.42,0,0,1-.53-1.08c.22-.1-.28-1.13-.5-1-.53-1.11-5.75-3-7.81-3.06a.44.44,0,0,1-.06.34,18.42,18.42,0,0,1-4.13-.42c-.22-.45-4.45,1.36-4.79,1.52-.26-.32-1,.33-1,.3a5.6,5.6,0,0,1-1.09.41s-.47.28-.53.21-.44.22-.46.22-.16.26-.2.16a1.45,1.45,0,0,0-.57.17c0,.08-.44.23-.66.34l-1.14.6c.07.08-.55.2-.49.26-.31.17-.68.4-1,.62.16.2-1.24.77-1.32.67-.57.25-4.22,2.43-4.22,2.43.08.3,2.23,0,2.92.83,1.3-.69,2-.69,6.2-1.85,1.91-.53,7.66-5.28,7.54-3.41l5.34,1.61c2.58-.19,4.12,1.75,4.26,1.6.4-.44,4.56,1.41,4.13,1.12S72.39,42.64,72.79,42.81Z"/><path class="cls-1" d="M82.76,22.29a12.93,12.93,0,0,1-2.7-1.7,1.31,1.31,0,0,0-.91-.57c-.21.12-1.07-.42-.86-.54-.93-.59-.44-4.51.55-5.92a.76.76,0,0,0,.39,0,11,11,0,0,0,1.58-2.88c-.38-.24,3.65-2.77,4-3-.22-.25.83-.6.81-.62a6.89,6.89,0,0,0,1-.66s.53-.26.48-.32.46-.26.47-.27.36-.06.27-.1.43-.38.46-.36.47-.25.7-.38l1.2-.65s.48-.34.53-.29c.32-.18.76-.38,1.18-.58.13.15,1.43-.69,1.36-.77.56-.34,4.7-2.39,4.7-2.39.28.11-1.12,1.51-.54,2.15-1.38.74-1.73,1.22-5.05,3.85C90.84,7.54,82.89,10.52,85,10.8l-.89,4c-1.48,1.71-.14,3.15-.37,3.21-.67.19-.72,3.38-.83,3S82.77,22,82.76,22.29Z"/><path class="cls-1" d="M34.18,11.94A13.06,13.06,0,0,1,36.4,9.65a1.34,1.34,0,0,0,.75-.78c-.08-.23.63-1,.71-.73.76-.78,4.5.51,5.68,1.77a.74.74,0,0,0-.11.38,10.88,10.88,0,0,0,2.5,2.14c.31-.33,1.94,4.14,2.06,4.52.29-.17.41.93.44.92A7.1,7.1,0,0,0,48.87,19s.15.58.21.54.16.5.17.52,0,.36,0,.28a1.74,1.74,0,0,1,.25.53c0,.06.15.5.23.75.13.45.26.88.39,1.31-.07,0,.23.55.17.58.1.35.22.82.33,1.27-.18.1.37,1.55.47,1.5.21.61,1.36,5.09,1.36,5.09-.17.25-1.24-1.41-2-1-.45-1.51-.84-1.95-2.72-5.74C46.93,22.9,45.66,14.5,45,16.47l-3.69-1.69c-1.37-1.79-3.05-.78-3.06-1,0-.7-3.15-1.41-2.79-1.44S34.48,12,34.18,11.94Z"/><path class="cls-1" d="M150.75,16.79a24.3,24.3,0,0,0-3-2.93c-.91-.58-1-1-1-1,.23,0-.72-1-1-.93-1-1-8-3.32-10.49-3.61.08.13.09.22,0,.28a36.42,36.42,0,0,1-5.13-.89c-.42-.41-4.93.58-5.28.68-.43-.32-1.06.15-1.1.12a6.19,6.19,0,0,1-1.19.21s-.47.18-.56.11-.47.13-.49.13-.11.2-.19.11a1.57,1.57,0,0,0-.63.07c.07.07-.46.13-.68.2l-1.18.36c.1.07-.6.1-.51.16-.31.1-.69.25-1.05.39.27.19-1.24.5-1.37.4-.61.14-4.29,1.52-4.29,1.52.2.27,2.69.27,3.81,1.08,1.34-.41,2.19-.33,6.88-.77,2.14-.2,7.5-3.5,8-1.93l7,2.07c3.06.17,5.58,2,5.69,1.91.34-.33,6,1.78,5.38,1.48S150.2,16.59,150.75,16.79Z"/><path class="cls-1" d="M117.29,4.34a8.85,8.85,0,0,0-2.29,0c-.54.19-.78,0-.78,0,0-.17-.7-.17-.73,0-.79,0-3.8,2.72-4.6,4,.09,0,.14.08.15.14a7.31,7.31,0,0,1-2.42,2.11c-.34-.11-1.19,1.48-1.31,1.67-.3-.11-.4.46-.43.45a2.15,2.15,0,0,1-.44.54s-.13.29-.2.27-.16.25-.16.26,0,.19,0,.14-.28.24-.25.26-.15.26-.22.38-.26.44-.38.66c.07,0-.22.27-.16.29-.1.18-.2.42-.31.64.19.07-.35.79-.44.75-.21.31-1.3,2.57-1.3,2.57.2.14,1.28-.66,2.08-.39.43-.76.83-1,2.7-2.82.86-.85,2-4.33,3-3.67l2.9-2.9a5.65,5.65,0,0,1,2.47-2.21c-.08-.4,2.49-2.47,2.17-2.29S117.05,4.54,117.29,4.34Z"/><path class="cls-1" d="M137.51,10.65s-2.68-1.2-3.56-1.08a1.17,1.17,0,0,1-1.2-.36c.09-.31-1-.65-1.14-.34-1.22-.37-6.66,3.43-8.27,5.55a.48.48,0,0,1,.2.35,10.22,10.22,0,0,1-4.34,2.9c-.5-.37-2.27,2.28-2.5,2.58-.44-.34-.75.7-.79.67a4.73,4.73,0,0,1-.83.83s-.3.49-.4.41-.31.41-.32.42,0,.37-.1.26-.5.33-.46.38-.3.41-.45.62l-.76,1.08c.1.08-.42.41-.33.48-.21.3-.44.7-.66,1.09.28.21-.76,1.33-.9,1.22C110.29,28.2,108,32,108,32c.26.36,2.16-.66,3.33.22.87-1.24,1.55-1.45,5-4.13,1.56-1.22,4.39-7.31,5.66-5.61l5.3-4.2c1.85-2.84,4.47-2.81,4.46-3.08,0-.79,4.55-3.55,4-3.36S137.07,10.92,137.51,10.65Z"/><path class="cls-1" d="M88.74,32.11a24.11,24.11,0,0,0,3.35,2.5c1,.45,1.13.85,1.13.85-.22.09.85.88,1.06.8,1.15.86,8.36,2.2,10.89,2.14-.1-.12-.12-.21-.08-.27a37.75,37.75,0,0,1,5.21.18c.47.35,4.81-1.24,5.14-1.39.47.25,1-.29,1.07-.27a6.05,6.05,0,0,1,1.15-.37s.44-.24.54-.18.45-.19.46-.2.09-.21.18-.13.65-.12.61-.16.44-.19.65-.29l1.12-.52c-.11-.06.58-.18.48-.23.3-.14.65-.34,1-.53-.29-.15,1.16-.66,1.31-.58.58-.22,4-2.09,4-2.09-.24-.24-2.7.1-3.93-.55-1.27.59-2.12.62-6.71,1.7-2.08.49-7,4.48-7.64,3l-7.23-1.08c-3,.25-5.8-1.25-5.9-1.12-.28.37-6.17-1-5.53-.73A16.9,16.9,0,0,1,88.74,32.11Z"/><path class="cls-1" d="M137.51,10.65s-2.68-1.2-3.56-1.08a1.17,1.17,0,0,1-1.2-.36c.09-.31-1-.65-1.14-.34-1.22-.37-6.66,3.43-8.27,5.55a.48.48,0,0,1,.2.35,10.22,10.22,0,0,1-4.34,2.9c-.5-.37-2.27,2.28-2.5,2.58-.44-.34-.75.7-.79.67a4.73,4.73,0,0,1-.83.83s-.3.49-.4.41-.31.41-.32.42,0,.37-.1.26-.5.33-.46.38-.3.41-.45.62l-.76,1.08c.1.08-.42.41-.33.48-.21.3-.44.7-.66,1.09.28.21-.76,1.33-.9,1.22C110.29,28.2,108,32,108,32c.26.36,2.16-.66,3.33.22.87-1.24,1.55-1.45,5-4.13,1.56-1.22,4.39-7.31,5.66-5.61l5.3-4.2c1.85-2.84,4.47-2.81,4.46-3.08,0-.79,4.55-3.55,4-3.36S137.07,10.92,137.51,10.65Z"/><path class="cls-1" d="M77.07,9.27S78.52,8,79,8a.69.69,0,0,0,.67-.41c-.08-.24.55-.63.62-.4.68-.42,4.12,2,5.22,3.49a.45.45,0,0,0-.09.29,5.47,5.47,0,0,0,2.74,1.82c.26-.35,1.49,1.54,1.65,1.75.23-.31.49.47.51.44a2.65,2.65,0,0,0,.54.57s.21.35.26.28.21.29.22.3,0,.29.08.19.32.21.3.25.2.29.3.44l.53.77c0,.08.28.28.23.34.14.21.31.5.47.79-.15.19.54,1,.62.86.27.34,1.9,3.1,1.9,3.1-.12.31-1.3-.29-1.9.53-.6-.89-1-1-3.21-2.72-1-.79-3.11-5.28-3.7-3.8l-3.4-2.74a4.19,4.19,0,0,0-2.82-1.94c0-.62-2.9-2.3-2.58-2.21S77.35,9.44,77.07,9.27Z"/><path class="cls-1" d="M63,45.27s2.49,1.55,3.38,1.55a1.19,1.19,0,0,1,1.14.53c-.13.29.94.78,1.08.49,1.16.53,7.06-2.49,8.95-4.38a.43.43,0,0,1-.15-.36,10.21,10.21,0,0,1,4.69-2.29c.44.44,2.56-1.94,2.83-2.21.4.39.84-.59.88-.55a4.32,4.32,0,0,1,.93-.72s.36-.44.45-.35.36-.37.37-.38.06-.36.14-.23.54-.26.51-.32.35-.37.53-.55l.9-1c-.09-.1.48-.35.4-.43.24-.27.52-.63.79-1-.24-.24.94-1.22,1.07-1.09.47-.42,3.27-3.89,3.27-3.89-.21-.39-2.23.36-3.27-.67-1,1.11-1.74,1.23-5.5,3.42-1.71,1-5.33,6.64-6.36,4.78L74.22,39.1c-2.22,2.56-4.81,2.18-4.84,2.44-.09.78-5,2.9-4.42,2.79S63.49,45.06,63,45.27Z"/><path class="cls-1" d="M.28,34a25.46,25.46,0,0,0,3,2.94c.91.57,1,1,1,1-.23,0,.72,1,.94.93,1,1,8,3.32,10.5,3.61-.09-.13-.09-.22,0-.28a36.72,36.72,0,0,1,5.13.89c.42.41,4.93-.58,5.28-.67.43.31,1.06-.16,1.1-.13a6.19,6.19,0,0,1,1.19-.21s.47-.17.56-.11.47-.12.48-.13.11-.19.2-.1a2,2,0,0,0,.63-.07c-.07-.08.46-.14.68-.21l1.18-.36c-.1-.07.6-.1.51-.16.31-.1.69-.25,1-.39-.27-.19,1.23-.5,1.37-.4.6-.14,4.29-1.52,4.29-1.52-.21-.26-2.69-.27-3.81-1.08-1.34.42-2.19.33-6.88.77-2.14.2-7.5,3.5-8,1.93l-7-2.06c-3.06-.17-5.58-2-5.7-1.92-.33.33-6-1.78-5.37-1.48S.83,34.22.28,34Z"/><path class="cls-1" d="M11.26,34.29a12.93,12.93,0,0,1-2.7-1.7A1.31,1.31,0,0,0,7.65,32c-.21.12-1.07-.42-.86-.54-.93-.59-.44-4.51.55-5.92a.76.76,0,0,0,.39,0A11,11,0,0,0,9.31,22.7c-.38-.24,3.65-2.77,4-3-.22-.25.83-.6.81-.62a6.89,6.89,0,0,0,1-.66s.53-.26.48-.32.46-.26.47-.27.36-.06.27-.1.43-.38.46-.36.47-.25.7-.38l1.2-.65c0,.05.48-.34.53-.29.32-.18.76-.38,1.18-.58.13.15,1.43-.69,1.36-.77.56-.34,4.7-2.39,4.7-2.39.28.11-1.12,1.51-.54,2.15-1.38.74-1.73,1.22-5,3.85-1.51,1.19-9.46,4.17-7.38,4.45l-.89,4c-1.48,1.71-.14,3.15-.37,3.21-.67.19-.72,3.38-.83,3S11.27,34,11.26,34.29Z"/><path class="cls-1" d="M79.25,28.79a24.3,24.3,0,0,0-3-2.93c-.91-.58-1-1-1-1,.23-.05-.72-1-1-.93-1-1-8-3.32-10.49-3.61.08.13.09.22,0,.28a36.42,36.42,0,0,1-5.13-.89c-.42-.41-4.93.58-5.28.68-.43-.32-1.06.15-1.1.12a6.19,6.19,0,0,1-1.19.21s-.47.18-.56.11-.47.13-.49.13-.11.2-.19.11a1.57,1.57,0,0,0-.63.07c.07.07-.46.13-.68.2l-1.18.36c.1.07-.6.1-.51.16-.31.1-.69.25-1,.39.27.19-1.24.5-1.37.4-.61.14-4.29,1.52-4.29,1.52.2.27,2.69.27,3.81,1.08,1.34-.41,2.19-.33,6.88-.77,2.14-.2,7.5-3.5,8-1.93l7,2.07c3.06.17,5.58,2,5.69,1.91.34-.33,6,1.78,5.38,1.48S78.7,28.59,79.25,28.79Z"/><path class="cls-1" d="M143,26.61a23.93,23.93,0,0,0,3,2.94c.91.57,1,1,1,1-.23.06.71,1,.94.94,1,1,8,3.32,10.49,3.6-.08-.13-.09-.22,0-.27a36.59,36.59,0,0,1,5.13.88c.42.42,4.94-.57,5.29-.67.43.31,1.06-.15,1.1-.13a5.88,5.88,0,0,1,1.18-.2s.48-.18.57-.11.47-.13.48-.13.11-.2.19-.11a1.52,1.52,0,0,0,.63-.07c-.06-.07.46-.14.69-.21l1.17-.36c-.1-.07.6-.09.52-.16.31-.1.68-.24,1-.39-.26-.19,1.24-.49,1.38-.39.6-.15,4.29-1.52,4.29-1.52-.21-.27-2.69-.27-3.82-1.09-1.34.42-2.18.33-6.88.78-2.13.2-7.5,3.49-8,1.92l-7-2.06c-3-.17-5.57-2-5.69-1.91-.33.32-6-1.79-5.38-1.48A15.15,15.15,0,0,1,143,26.61Z"/><path class="cls-1" d="M110.75,40.1a15.27,15.27,0,0,0,1.78,3.11,1.46,1.46,0,0,1,.6,1c-.21.11.35,1.1.56,1,.61,1.06,5.94,2.63,8,2.52a.42.42,0,0,1,0-.34,19,19,0,0,1,4.15.13c.24.45,4.35-1.65,4.67-1.83.29.3.94-.4,1-.37a5.64,5.64,0,0,1,1.06-.48s.45-.31.51-.25.44-.25.45-.25.14-.27.19-.17a1.41,1.41,0,0,0,.56-.21c0-.08.42-.26.63-.38l1.09-.68c-.06-.07.54-.23.48-.29.3-.19.65-.44,1-.69-.18-.19,1.18-.86,1.27-.76.55-.29,4.05-2.71,4.05-2.71-.11-.29-2.22.17-3-.63-1.25.77-2,.83-6.06,2.27-1.87.65-7.3,5.79-7.29,3.91L121,42.79c-2.56.37-4.23-1.47-4.35-1.31-.37.47-4.64-1.09-4.2-.83S111.17,40.25,110.75,40.1Z"/><path class="cls-1" d="M169.75,33.05a24.3,24.3,0,0,0-3-2.93c-.91-.58-1-1-1-1,.23-.05-.72-1-1-.93-1-1-8-3.32-10.49-3.61.08.14.09.22,0,.28a36.42,36.42,0,0,1-5.13-.89c-.42-.41-4.93.58-5.28.68-.43-.32-1.06.15-1.1.12a6.19,6.19,0,0,1-1.19.21s-.47.18-.56.11-.47.13-.49.13-.11.2-.19.11a1.57,1.57,0,0,0-.63.07c.07.07-.46.13-.68.2l-1.18.36c.1.07-.6.1-.51.16-.31.1-.69.25-1.05.39.27.19-1.24.5-1.37.4-.61.14-4.29,1.52-4.29,1.52.2.27,2.69.27,3.81,1.08,1.34-.41,2.19-.33,6.88-.77,2.14-.2,7.5-3.5,8-1.93l7,2.07c3.06.17,5.58,2,5.69,1.91.34-.33,6,1.78,5.38,1.48S169.2,32.85,169.75,33.05Z"/><path class="cls-1" d="M45.79,16.34a8.85,8.85,0,0,0-2.29,0c-.54.19-.78,0-.78,0,0-.17-.7-.17-.73,0-.79,0-3.8,2.72-4.6,4,.09,0,.14.08.15.14a7.31,7.31,0,0,1-2.42,2.11c-.34-.11-1.19,1.48-1.31,1.67-.3-.11-.4.46-.43.45a2.15,2.15,0,0,1-.44.54s-.13.29-.2.27-.16.25-.16.26,0,.19,0,.14-.28.24-.25.26-.15.26-.22.38-.26.44-.38.66c.07,0-.22.27-.16.29-.1.18-.2.42-.31.64.19.07-.35.79-.44.75-.21.31-1.3,2.57-1.3,2.57.2.14,1.28-.66,2.08-.39.43-.76.83-1,2.7-2.82.86-.85,2.05-4.33,3-3.67l2.9-2.9a5.65,5.65,0,0,1,2.47-2.21c-.08-.4,2.49-2.47,2.17-2.29S45.55,16.54,45.79,16.34Z"/><path class="cls-1" d="M66,22.65s-2.68-1.2-3.56-1.08a1.17,1.17,0,0,1-1.2-.36c.09-.31-1-.65-1.14-.34-1.22-.37-6.66,3.43-8.27,5.55a.48.48,0,0,1,.2.35,10.22,10.22,0,0,1-4.34,2.9c-.5-.37-2.27,2.28-2.5,2.58-.44-.34-.75.7-.79.67a4.73,4.73,0,0,1-.83.83s-.3.49-.4.41-.31.41-.32.42,0,.37-.1.26-.5.33-.46.38-.3.41-.45.62l-.76,1.08c.1.08-.42.41-.33.48-.21.3-.44.7-.66,1.09.28.21-.76,1.33-.9,1.22-.41.49-2.72,4.3-2.72,4.3.26.36,2.16-.66,3.33.22.87-1.24,1.55-1.45,5-4.13,1.56-1.22,4.39-7.31,5.66-5.61l5.3-4.2c1.85-2.84,4.47-2.81,4.46-3.08,0-.79,4.55-3.55,4-3.36S65.57,22.92,66,22.65Z"/><path class="cls-1" d="M17.24,44.11a24.11,24.11,0,0,0,3.35,2.5c1,.45,1.13.85,1.13.85-.22.09.85.88,1.06.8,1.15.86,8.36,2.2,10.89,2.14-.1-.12-.12-.21-.08-.27a37.75,37.75,0,0,1,5.21.18c.47.35,4.81-1.24,5.14-1.39.47.25,1-.29,1.07-.27a6.05,6.05,0,0,1,1.15-.37s.44-.24.54-.18.45-.19.46-.2.09-.21.18-.13.65-.12.61-.16.44-.19.65-.29l1.12-.52c-.11-.06.58-.18.48-.23.3-.14.65-.34,1-.53-.29-.15,1.16-.66,1.31-.58.58-.22,4-2.09,4-2.09-.24-.24-2.7.1-3.93-.55-1.27.59-2.12.62-6.71,1.7-2.08.49-6.95,4.48-7.64,3L31,46.43c-3.05.25-5.8-1.25-5.9-1.12-.28.37-6.17-1-5.53-.73A16.9,16.9,0,0,1,17.24,44.11Z"/><path class="cls-1" d="M66,22.65s-2.68-1.2-3.56-1.08a1.17,1.17,0,0,1-1.2-.36c.09-.31-1-.65-1.14-.34-1.22-.37-6.66,3.43-8.27,5.55a.48.48,0,0,1,.2.35,10.22,10.22,0,0,1-4.34,2.9c-.5-.37-2.27,2.28-2.5,2.58-.44-.34-.75.7-.79.67a4.73,4.73,0,0,1-.83.83s-.3.49-.4.41-.31.41-.32.42,0,.37-.1.26-.5.33-.46.38-.3.41-.45.62l-.76,1.08c.1.08-.42.41-.33.48-.21.3-.44.7-.66,1.09.28.21-.76,1.33-.9,1.22-.41.49-2.72,4.3-2.72,4.3.26.36,2.16-.66,3.33.22.87-1.24,1.55-1.45,5-4.13,1.56-1.22,4.39-7.31,5.66-5.61l5.3-4.2c1.85-2.84,4.47-2.81,4.46-3.08,0-.79,4.55-3.55,4-3.36S65.57,22.92,66,22.65Z"/><path class="cls-1" d="M5.57,21.27S7,20,7.54,20a.69.69,0,0,0,.67-.41c-.08-.24.55-.63.62-.4.68-.42,4.12,2,5.22,3.49A.45.45,0,0,0,14,23a5.47,5.47,0,0,0,2.74,1.82c.26-.35,1.49,1.54,1.65,1.75.23-.31.49.47.51.44a2.65,2.65,0,0,0,.54.57s.21.35.26.28.21.29.22.3,0,.29.08.19.32.21.3.25.2.29.3.44l.53.77c-.05.08.28.28.23.34.14.21.31.5.47.79-.15.19.54,1,.62.86.27.34,1.9,3.1,1.9,3.1-.12.31-1.3-.29-1.9.53-.6-.89-1-1-3.21-2.72-1-.79-3.11-5.28-3.7-3.8l-3.4-2.74a4.19,4.19,0,0,0-2.82-1.94c0-.62-2.9-2.3-2.58-2.21S5.85,21.44,5.57,21.27Z"/><path class="cls-1" d="M42.2,30.7S44,32.64,43.59,33s-.1,1-.1,1c.31.25.22,1.18-.09.93-.1,1-4.81-1.72-7.29-2.95a1,1,0,0,0-.24-.44c-1.79-.89-4.19-.79-4.13-.56.16.62-2.84-1-3.19-1.21.14.56-.89-.28-.88-.23a3.92,3.92,0,0,0-1-.38s-.54-.32-.51-.2-.48-.23-.49-.24-.34-.35-.27-.19-.47-.06-.5-.13-.48-.25-.71-.37l-1.24-.66c0-.13-.52-.18-.55-.29-.34-.18-.78-.46-1.2-.72-.09-.34-1.47-.9-1.42-.72-.58-.26-4.81-2.76-4.81-2.76-.23-.49,1.36-.48,1-1.95,1.42.75,1.85.6,5.46,1.42,1.64.37,7.48,6.68,6.41,4.37L33.42,28c3.19,1.79,4.1.41,4.33.67.7.77,3.11,1.7,2.74,1.79S41.8,30.66,42.2,30.7Z"/><path class="cls-1" d="M76.44,13a36.29,36.29,0,0,0-5-.88,3,3,0,0,1-1.69-.3c.2-.16-1.39-.44-1.59-.28-1.72-.3-10.44,1.41-13.23,2.49.18.06.24.13.23.2a29.77,29.77,0,0,1-6.94,1.3c-.65-.25-4.32,1.18-4.69,1.39-.62-.13-1.18.52-1.23.51A10.78,10.78,0,0,1,41,18s-.49.33-.62.3-.5.29-.51.29-.06.22-.18.17a2.56,2.56,0,0,0-.72.29c.11,0-.48.29-.72.43L37,20.27c.14,0-.66.3-.54.33-.33.2-.71.47-1.08.73.38.08-1.26.9-1.45.86-.65.34-4.5,1.66-4.5,1.66.34.17,3.23-.71,4.83-.37,1.41-.86,2.49.18,7.79-1.91,2.4-.95,7.69-4.19,9.21-3.14l8.61-1.95C63.17,15,67,15.25,67,15.1c.13-.45,7.36-1.65,6.54-1.58A21.68,21.68,0,0,1,76.44,13Z"/><path class="cls-1" d="M142.56,31.53a10.4,10.4,0,0,1-1.36-2.82,1,1,0,0,0-.46-1c-.25.11-.68-.79-.43-.9-.47-1,2.05-5.77,3.64-7.28a.38.38,0,0,0,.31.13,21.13,21.13,0,0,0,2.88-3.21c-.2-.4,4.55-2.53,4.94-2.68-.05-.37,1-.53,1-.56a7.57,7.57,0,0,0,1.18-.59s.59-.19.58-.27.52-.21.54-.21.33,0,.28-.07a1.83,1.83,0,0,1,.58-.32c0,.06.52-.2.78-.3L158.4,11c0,.08.58-.3.59-.23.37-.13.85-.28,1.31-.42,0,.22,1.58-.5,1.56-.61.64-.28,5.23-1.79,5.23-1.79.17.22-1.75,1.6-1.61,2.55-1.56.59-2.11,1.09-6.31,3.54-1.91,1.11-10.19,2.79-8.59,3.68l-2.88,4.73c-2.16,1.77-1.8,3.92-2,3.94-.66.05-2.42,4-2.32,3.58S142.73,31.15,142.56,31.53Z"/><path class="cls-1" d="M107,20.45a19.56,19.56,0,0,1,3.1-2.31,2,2,0,0,0,1-.77c.06-.32,1-1.05,1-.74,1.06-.79,3.51,1.8,3.82,3.69a1.51,1.51,0,0,0-.29.44c.23,1.37.79,3.46,1,3.34.44-.33-.59,5.7-.69,6.2.33-.13-.16,1.28-.13,1.27a12,12,0,0,0-.21,1.49s-.18.75-.11.73-.14.67-.14.68-.21.45-.11.37a2.46,2.46,0,0,1-.07.73,5.81,5.81,0,0,0-.22,1c-.12.6-.25,1.18-.37,1.75-.08,0-.1.74-.17.77-.1.47-.26,1.09-.41,1.68a5.21,5.21,0,0,0-.41,2c-.14.82-1.58,6.74-1.58,6.74-.28.27-.29-2.09-1.15-1.74.43-2,.34-2.66.79-7.9.21-2.38,3.64-13.24,2-10.95l-2.19-3.07c-.18-2.61-2.14-1.78-2-2.08.34-.88-1.9-2.58-1.58-2.53S107.18,20.62,107,20.45Z"/><path class="cls-1" d="M140.37,23.19a5,5,0,0,0-1.93-.6c-.55.1-.65-.2-.65-.2.12-.21-.5-.4-.61-.19-.66-.21-4.66,2.43-6,3.86a.25.25,0,0,1,0,.22,9.49,9.49,0,0,1-3.17,2c-.22-.23-1.79,1.55-2,1.76-.2-.21-.59.47-.61.45a3.74,3.74,0,0,1-.66.57s-.27.33-.31.28-.27.28-.28.29-.07.24-.11.17a1.06,1.06,0,0,0-.35.26c0,.06-.26.28-.38.41l-.67.74s-.34.28-.3.32l-.6.72c.13.13-.71.9-.78.83-.34.33-2.46,2.88-2.46,2.88.09.23,1.43-.49,2,.05.77-.84,1.22-1,3.79-2.84,1.17-.84,4-4.9,4.48-3.83l4-2.89A7.41,7.41,0,0,1,136,26.33c.14-.51,3.41-2.45,3.05-2.31S140.05,23.38,140.37,23.19Z"/><path class="cls-1" d="M167.93,26.9a20.35,20.35,0,0,0-3.72-2.4c-1.11-.34-1.26-.81-1.26-.81.25-.16-.93-.92-1.19-.76-1.28-.83-9.53-.93-12.45-.3.11.13.13.23.08.32a20.37,20.37,0,0,1-6.53-.16c-.41-.49-4.26.35-4.69.52-.45-.32-1.27.35-1.31.33a9.38,9.38,0,0,1-1.43.43s-.58.29-.68.22-.57.23-.59.24-.16.26-.24.16a2.12,2.12,0,0,0-.75.18c.06.08-.57.24-.84.35l-1.45.63c.11.08-.71.21-.62.28-.39.17-.85.41-1.3.64.27.2-1.54.8-1.69.7-.73.26-4.67.92-4.67.92.19.3,3.1-.06,4.26.78,1.65-.71,2,.87,7.57-.38,2.53-.57,8.71-3.27,9.42-1.55l8.29-.23c3.53-1,6.63.29,6.75.11.35-.52,7.08-.16,6.35-.29S167.29,26.87,167.93,26.9Z"/></g></g></svg>