<svg xmlns="http://www.w3.org/2000/svg" xmlns:xlink="http://www.w3.org/1999/xlink" viewBox="0 0 438.78 155"><defs><style>.cls-1{fill:#fff;stroke:#e02b4e;stroke-linecap:round;stroke-linejoin:bevel;stroke-width:13px;stroke-dasharray:0 26;fill-rule:evenodd;}.cls-2{fill:url(#linear-gradient);}</style><linearGradient id="linear-gradient" x1="26.11" y1="88.84" x2="409.6" y2="88.84" gradientUnits="userSpaceOnUse"><stop offset="0" stop-color="#fcee21"/><stop offset="0.01" stop-color="#fced21"/><stop offset="0.59" stop-color="#fe881b"/><stop offset="0.86" stop-color="#ff6018"/></linearGradient></defs><title>logo</title><g id="Layer_2" data-name="Layer 2"><g id="logo"><path class="cls-1" d="M44.15,6.66,401.06,42.6c17.69,1.79,31.22,17.72,31.22,36.79v32.16c0,20.41-15.42,37-34.44,37H40.94c-19,0-34.44-16.54-34.44-36.95V43.45C6.5,21.68,24,4.63,44.15,6.66Z"/><path class="cls-2" d="M44.46,70.68c-2.45,0-5.37-.68-5.37-3.3,0-3.5,3.84-14.07,4.82-16.73-3.09,1.43-5.3,2.76-6.11,2.76-.55,0-.68-.61-.68-1.12a7.22,7.22,0,0,1,1.56-3.47C40.14,47,51.73,43,56.6,43c9,0,12.54,3.54,12.54,8.06C69.14,59.22,57.45,70.68,44.46,70.68Zm13.33-23.6a31.43,31.43,0,0,0-12,2.72,13.28,13.28,0,0,0,2.07.31c.24,0,.44.27.44.71,0,1.09-4.55,13.53-4.55,14.89a.49.49,0,0,0,.54.55c11.63,0,20.23-8.67,20.23-14.35C64.55,49.16,62.51,47.08,57.79,47.08Z"/><path class="cls-2" d="M81.31,69.59A2.64,2.64,0,0,1,78.73,68a.21.21,0,0,0-.2-.17c-.55,0-3.4,2.55-8.23,2.55-3.23,0-4.56-1.29-4.56-3.06,0-3.84,6.33-10,12.62-10,1.22,0,1.7.55,1.7,1.23a3.2,3.2,0,0,1-2.72,2.78c-2.72,0-6.94,3.06-6.94,4.56,0,.48.44.82,1.53.82,2,0,5.64-2,8.5-4.66a2,2,0,0,1,1.19-.58c.41,0,.71.27.71,1s-.27,1.87-.27,2.61.21,1.09.89,1.09,1.66-.44,2.48-.47a.81.81,0,0,1,.92.88C86.35,67.62,83.59,69.59,81.31,69.59Z"/><path class="cls-2" d="M91.68,70c-1.22,0-3.94-.13-3.94-3,0-1.6.58-3.34.58-4.46,0-.71-.24-1.19-1-1.19s-1,.58-1.9.58c-.62,0-1.4-.24-1.4-1a2.66,2.66,0,0,1,1.5-2.25,12,12,0,0,1,4.25-1.39c1,0,1.9.51,1.9,2.07s-.54,3.2-.58,4.83c.07.48-.13,1.94,2,1.94a3.28,3.28,0,0,0,3.61-3.5,5.33,5.33,0,0,0-.21-1.47c-.24-.78-1.46-1.19-1.46-1.93,0-.58,1-.75,2.31-.75,2.42,0,3.78.85,3.78,3.53C101.14,66.05,97.43,70,91.68,70Z"/><path class="cls-2" d="M108.14,66.36s0,.82,3,.82c2.48,0,3.26-1.47,4.52-1.47.68,0,1,.34,1,.85,0,2.28-4,4-7.75,4-4.45,0-6.32-2-6.32-4.49,0-3.81,4.49-8.71,10.57-8.71,3.06,0,4.29,1,4.29,2.28C117.46,62.11,113.07,65.75,108.14,66.36ZM111.68,60c-1.4,0-4.15,1.8-4.15,3.4,0,.21.07.34.34.34,1.66,0,4.76-2,4.76-3.23C112.63,60.1,112.15,60,111.68,60Z"/><path class="cls-2" d="M121,53.2c-.95,0-1.7-.4-1.7-1.22,0-1.26,2.31-.58,2.31-2S119,48,119,47.12c0-.48,1-2,2.07-2,1.87,0,3.5,3,3.5,4.76A3.45,3.45,0,0,1,121,53.2Z"/><path class="cls-2" d="M127.79,70.17c-2.75,0-4-1.33-4-2.31s1.46-3.1,2.65-3.1c.92,0,.89,1.6,3.1,1.6,2,0,3-1.29,3-2.58a2.51,2.51,0,0,0-2.69-2.52c-.75,0-6.46,3.54-6.8,3.54-.81,0-1.32-1.19-1.32-1.64,0-1.59,7.68-5.74,9.82-5.74,2.93,0,4.59,2.58,4.59,5.44C136.12,66.33,133.64,70.17,127.79,70.17Z"/><path class="cls-2" d="M172.6,55.82c-.78,0-2.41,0-2.41-1.15,0-.48.51-.68.88-.68,4.32,0,7.52-4.32,7.52-6.46,0-1.19-1-1.64-2.35-1.64-6,0-14.07,9.22-14.07,17,0,2.24.88,3.94,3.19,3.94,3.57,0,9.79-3.13,12.44-3.13,1.84,0,2.89.82,2.89,2.82,0,2.83-1.22,5-1.49,7.65.1,1.23,1.6,1.33,1.6,2,0,1.12-2.69,1.83-4.29,1.83s-2.82-.44-2.82-2.21c0-2.55,1.9-6.39,1.9-8,0-.31-.2-.51-.88-.51-1.36,0-6.46,3.23-11.25,3.23-4,0-7.41-2-7.41-6.63,0-9.59,10-21,22.2-21,2.89,0,5.37,1.32,5.37,4.38C183.62,51.67,178.48,55.82,172.6,55.82Z"/><path class="cls-2" d="M211,63.47c-.92,0-1.29-.71-2-.71-1.57,0-4.32,4-5.14,5.44-.75.88-.81,1.83-2.41,1.87-1.4,0-2.76-.31-2.76-1.16,0-.65,1.53-4.69,1.53-6.19a1,1,0,0,0-.3-.81,4.72,4.72,0,0,1-2.82,2.1c-.28,3.57-5.17,6.46-9.79,6.46-3.85,0-5.48-1.63-5.48-3.8,0-4.05,5.68-9.9,12.78-9.9a10.67,10.67,0,0,1,1.13,0c.47,0,.64.44.64,1,0,1-.58,2.28-1.12,2.45-4.25.37-9.28,2.24-9.28,5.44,0,.71.34,1.36,1.5,1.36A6.92,6.92,0,0,0,194.29,61h0c4,0,7.34-3.5,8.87-3.5.72,0,1,.61,1,1.4a10.4,10.4,0,0,1-.74,3.33c0,.1,0,.17.1.17h0c.44,0,3.78-4.35,6.8-4.35s1.12,2.14,3.54,2.14c1.05,0,1.7-.75,2.31-.78.2,0,.3.3.3.61C216.49,61.87,213,63.47,211,63.47Z"/><path class="cls-2" d="M231.42,70c-3,0-3.13-1.67-3.13-2,0-1.12,0-1.12-.06-1.12-.28,0-3.81,2.86-7.48,2.86-2.69,0-3.2-1.23-3.2-3.13,0-1.12,1.09-4,1.09-4.46s-.41-.54-.92-.54a16.41,16.41,0,0,0-2.82.54.81.81,0,0,1-.88-.85c0-2.07,3.77-3.67,5.4-3.67,1,0,2.48.41,2.48,1.91s-.61,3.12-.61,4.11c0,.71.31,1.16,1.39,1.16,4.87,0,8-5.17,9.66-5.17a1.13,1.13,0,0,1,1.16,1c0,1.12-1.19,2.34-1.19,4.42a1.25,1.25,0,0,0,1.42,1.36c1,0,1.33-.41,1.91-.41s.75.24.75.61C236.39,67.75,234.28,70,231.42,70Z"/><path class="cls-2" d="M253.76,70.07c-1.9,0-2-1.53-2-3.23,0-.45-.17-.68-.57-.68-2.38,0-3.88,4.14-5.58,4.14-.75,0-1.29-.34-1.29-.81,0-1.09.1-1.94.1-2.55,0-.27-.14-.48-.65-.48-2.07,0-2.95,3.47-5.33,3.47-.79,0-1.7-.51-1.7-1.12s1.22-2.42,1.22-4.9c0-.92-.31-1.15-.71-1.15l-1.74.37a1,1,0,0,1-1-1.12c0-1.36,1.53-3.44,5.14-3.44,2,0,2.31.75,2.31,1.23,0,.92-.44,1.83-.44,2.34,0,.24.1.38.37.38.78,0,2.48-1.63,3.91-1.63,1.26,0,1.46.78,1.46,1.53,0,.4-.07.81-.07,1.08s0,.34.17.34c.31,0,2.45-2.68,5.75-2.68,1.19,0,1.9.44,1.94,1.7,0,.61-.14,1.26-.14,2,0,1,.27,1.84,1.46,1.84.34,0,1-.21,1.36-.21a.57.57,0,0,1,.58.65C258.28,68.23,255.63,70.07,253.76,70.07Z"/><path class="cls-2" d="M261.68,66.36s0,.82,3,.82c2.48,0,3.26-1.47,4.52-1.47.68,0,1.06.34,1.06.85,0,2.28-4,4-7.76,4-4.45,0-6.32-2-6.32-4.49,0-3.81,4.49-8.71,10.57-8.71,3.06,0,4.29,1,4.29,2.28C271,62.11,266.61,65.75,261.68,66.36ZM265.22,60c-1.4,0-4.15,1.8-4.15,3.4,0,.21.07.34.34.34,1.67,0,4.76-2,4.76-3.23C266.17,60.1,265.69,60,265.22,60Z"/><path class="cls-2" d="M286.4,60.78h-2.14a26.68,26.68,0,0,0-5.07.38,14.11,14.11,0,0,0-.17,2.38c0,1.83.78,3.23,2,3.23,1.74,0,2.45-1.29,3.51-1.29a1.07,1.07,0,0,1,.95,1.08c0,2-2.55,3.68-5.14,3.68s-5.47-1.81-5.47-6.84c0-.44,0-.88,0-1.32a.83.83,0,0,1-.27,0,13.77,13.77,0,0,1-1.39.14c-.85,0-1.29-.31-1.29-1.13a2.51,2.51,0,0,1,1.25-2.27,16.75,16.75,0,0,1,2.21-.51c1.26-6.05,4.39-11.46,6.09-11.46,1.09,0,1.6.85,1.6,1.87,0,2.28-1.87,5.2-3.06,8.87,1.32-.13,2.58-.24,3.64-.24,1.87,0,3.87.38,3.87,2.18C287.52,60.27,287.35,60.78,286.4,60.78Z"/><path class="cls-2" d="M51.44,123.05H42.19L29.89,98.59H26.11v-9.5h17v9.19l-3,.31,6.69,12.82,6.74-12.82-3-.31V89.09h17v9.5H63.75Z"/><path class="cls-2" d="M85.94,113.4l7.25,1.89c-2.4,6-6.89,8.63-11.9,8.63-9.5,0-14.19-6.94-14.19-13.79,0-8.83,6.89-13.22,13.68-13.22,6.64,0,13.18,4.18,13.18,12.46a11.69,11.69,0,0,1-.31,2.55H76.24a5.43,5.43,0,0,0,5.56,4A4.62,4.62,0,0,0,85.94,113.4Zm-1.12-6.18c0-2.3-2.51-2.81-4.09-2.81a4.65,4.65,0,0,0-4.24,2.81Z"/><path class="cls-2" d="M108.24,97c2.4,0,4.7.66,6,2.24l.26-1.68h11.28V107h-3.16v13.48c0,9.45-6.59,14.3-13.43,14.3a14.36,14.36,0,0,1-12.26-6.84l6.43-4.5a7.37,7.37,0,0,0,5.47,2.91c2.4,0,4.49-1.73,4.85-5.82a13.39,13.39,0,0,1-6.64,1.89c-5.92,0-10.88-4.55-10.88-11.75C96.13,103.85,100.22,97,108.24,97ZM109.51,115c2.76,0,3.94-2.4,3.94-4.81s-1.08-4.49-3.83-4.49-4.34,2-4.34,5A4,4,0,0,0,109.51,115Z"/><path class="cls-2" d="M140.12,97c2.4,0,4.7.66,6,2.24l.26-1.68h11.29V107h-3.17v13.48c0,9.45-6.59,14.3-13.43,14.3a14.36,14.36,0,0,1-12.26-6.84l6.44-4.5a7.34,7.34,0,0,0,5.46,2.91c2.4,0,4.49-1.73,4.85-5.82a13.37,13.37,0,0,1-6.64,1.89c-5.92,0-10.87-4.55-10.87-11.75C128,103.85,132.1,97,140.12,97ZM141.4,115c2.75,0,3.93-2.4,3.93-4.81s-1.07-4.49-3.83-4.49-4.34,2-4.34,5A4,4,0,0,0,141.4,115Z"/><path class="cls-2" d="M174.17,113.61h3.22v9.44H161.66v-9.44h3.21V107h-3.21V97.52h12.51ZM163.75,90.37a5.31,5.31,0,0,1,5.57-5.57,5.39,5.39,0,0,1,5.61,5.52,5.32,5.32,0,0,1-5.56,5.62A5.47,5.47,0,0,1,163.75,90.37Z"/><path class="cls-2" d="M198.47,113.4l7.25,1.89c-2.4,6-6.89,8.63-11.9,8.63-9.5,0-14.2-6.94-14.2-13.79,0-8.83,6.9-13.22,13.69-13.22,6.64,0,13.18,4.18,13.18,12.46a11.69,11.69,0,0,1-.31,2.55H188.76a5.45,5.45,0,0,0,5.57,4A4.63,4.63,0,0,0,198.47,113.4Zm-1.13-6.18c0-2.3-2.5-2.81-4.08-2.81a4.65,4.65,0,0,0-4.24,2.81Z"/><path class="cls-2" d="M226.88,89l22-.31c6.74,0,14,1.79,14,9.55a6.65,6.65,0,0,1-3.37,6.18,8.4,8.4,0,0,1,3.93,7.41c0,8.37-7.86,11.54-14.91,11.54l-21.65-.31v-9.49h3.32v-15h-3.32Zm12.92,12.77h10.93a2.07,2.07,0,0,0,2.09-2,1.8,1.8,0,0,0-2-1.79s-1.18,0-11,.15Zm0,12c2.6,0,8.68.1,9.65.1,2.55,0,4-1.27,4-2.45s-1.22-2.14-4-2.14h-9.6Z"/><path class="cls-2" d="M286.18,120.86c-1.79,2.45-4.7,2.7-7.1,2.7-5.77,0-9.55-4-9.55-10.16V107h-3.11V97.52h14.65v8.68l-2.14.66v5.57a2.13,2.13,0,0,0,2.3,2.25,5.57,5.57,0,0,0,5-4.34v-3.48l-2.24-.61V97.52h14.7V107h-3.16v6.64h3.16v9.44H286.18Z"/><path class="cls-2" d="M324.85,106.35c-3.68,0-8.48,1.64-8.48,3.73v3.53h3.22v9.44H303.91v-9.44h3.16V107h-3.16V97.52h11.28l.46,2.6a17.72,17.72,0,0,1,9.2-3.21Z"/><path class="cls-2" d="M338.62,97c2.4,0,4.7.66,6,2.24l.26-1.68h11.29V107H353v13.48c0,9.45-6.59,14.3-13.43,14.3a14.36,14.36,0,0,1-12.26-6.84l6.44-4.5a7.34,7.34,0,0,0,5.46,2.91c2.4,0,4.5-1.73,4.85-5.82a13.37,13.37,0,0,1-6.64,1.89c-5.92,0-10.87-4.55-10.87-11.75C326.52,103.85,330.6,97,338.62,97ZM339.9,115c2.75,0,3.93-2.4,3.93-4.81s-1.07-4.49-3.83-4.49-4.34,2-4.34,5A4,4,0,0,0,339.9,115Z"/><path class="cls-2" d="M377.29,113.4l7.26,1.89c-2.4,6-6.9,8.63-11.9,8.63-9.5,0-14.2-6.94-14.2-13.79,0-8.83,6.89-13.22,13.69-13.22,6.64,0,13.17,4.18,13.17,12.46a12.06,12.06,0,0,1-.3,2.55H367.59a5.43,5.43,0,0,0,5.57,4A4.61,4.61,0,0,0,377.29,113.4Zm-1.12-6.18c0-2.3-2.5-2.81-4.09-2.81a4.62,4.62,0,0,0-4.23,2.81Z"/><path class="cls-2" d="M409.6,106.35c-3.68,0-8.48,1.64-8.48,3.73v3.53h3.22v9.44H388.66v-9.44h3.16V107h-3.16V97.52h11.28l.46,2.6a17.72,17.72,0,0,1,9.2-3.21Z"/><path d="M44.46,70.68c-2.45,0-5.37-.68-5.37-3.3,0-3.5,3.84-14.07,4.82-16.73-3.09,1.43-5.3,2.76-6.11,2.76-.55,0-.68-.61-.68-1.12a7.22,7.22,0,0,1,1.56-3.47C40.14,47,51.73,43,56.6,43c9,0,12.54,3.54,12.54,8.06C69.14,59.22,57.45,70.68,44.46,70.68Zm13.33-23.6a31.43,31.43,0,0,0-12,2.72,13.28,13.28,0,0,0,2.07.31c.24,0,.44.27.44.71,0,1.09-4.55,13.53-4.55,14.89a.49.49,0,0,0,.54.55c11.63,0,20.23-8.67,20.23-14.35C64.55,49.16,62.51,47.08,57.79,47.08Z"/><path d="M81.31,69.59A2.64,2.64,0,0,1,78.73,68a.21.21,0,0,0-.2-.17c-.55,0-3.4,2.55-8.23,2.55-3.23,0-4.56-1.29-4.56-3.06,0-3.84,6.33-10,12.62-10,1.22,0,1.7.55,1.7,1.23a3.2,3.2,0,0,1-2.72,2.78c-2.72,0-6.94,3.06-6.94,4.56,0,.48.44.82,1.53.82,2,0,5.64-2,8.5-4.66a2,2,0,0,1,1.19-.58c.41,0,.71.27.71,1s-.27,1.87-.27,2.61.21,1.09.89,1.09,1.66-.44,2.48-.47a.81.81,0,0,1,.92.88C86.35,67.62,83.59,69.59,81.31,69.59Z"/><path d="M91.68,70c-1.22,0-3.94-.13-3.94-3,0-1.6.58-3.34.58-4.46,0-.71-.24-1.19-1-1.19s-1,.58-1.9.58c-.62,0-1.4-.24-1.4-1a2.66,2.66,0,0,1,1.5-2.25,12,12,0,0,1,4.25-1.39c1,0,1.9.51,1.9,2.07s-.54,3.2-.58,4.83c.07.48-.13,1.94,2,1.94a3.28,3.28,0,0,0,3.61-3.5,5.33,5.33,0,0,0-.21-1.47c-.24-.78-1.46-1.19-1.46-1.93,0-.58,1-.75,2.31-.75,2.42,0,3.78.85,3.78,3.53C101.14,66.05,97.43,70,91.68,70Z"/><path d="M108.14,66.36s0,.82,3,.82c2.48,0,3.26-1.47,4.52-1.47.68,0,1,.34,1,.85,0,2.28-4,4-7.75,4-4.45,0-6.32-2-6.32-4.49,0-3.81,4.49-8.71,10.57-8.71,3.06,0,4.29,1,4.29,2.28C117.46,62.11,113.07,65.75,108.14,66.36ZM111.68,60c-1.4,0-4.15,1.8-4.15,3.4,0,.21.07.34.34.34,1.66,0,4.76-2,4.76-3.23C112.63,60.1,112.15,60,111.68,60Z"/><path d="M121,53.2c-.95,0-1.7-.4-1.7-1.22,0-1.26,2.31-.58,2.31-2S119,48,119,47.12c0-.48,1-2,2.07-2,1.87,0,3.5,3,3.5,4.76A3.45,3.45,0,0,1,121,53.2Z"/><path d="M127.79,70.17c-2.75,0-4-1.33-4-2.31s1.46-3.1,2.65-3.1c.92,0,.89,1.6,3.1,1.6,2,0,3-1.29,3-2.58a2.51,2.51,0,0,0-2.69-2.52c-.75,0-6.46,3.54-6.8,3.54-.81,0-1.32-1.19-1.32-1.64,0-1.59,7.68-5.74,9.82-5.74,2.93,0,4.59,2.58,4.59,5.44C136.12,66.33,133.64,70.17,127.79,70.17Z"/><path d="M172.6,55.82c-.78,0-2.41,0-2.41-1.15,0-.48.51-.68.88-.68,4.32,0,7.52-4.32,7.52-6.46,0-1.19-1-1.64-2.35-1.64-6,0-14.07,9.22-14.07,17,0,2.24.88,3.94,3.19,3.94,3.57,0,9.79-3.13,12.44-3.13,1.84,0,2.89.82,2.89,2.82,0,2.83-1.22,5-1.49,7.65.1,1.23,1.6,1.33,1.6,2,0,1.12-2.69,1.83-4.29,1.83s-2.82-.44-2.82-2.21c0-2.55,1.9-6.39,1.9-8,0-.31-.2-.51-.88-.51-1.36,0-6.46,3.23-11.25,3.23-4,0-7.41-2-7.41-6.63,0-9.59,10-21,22.2-21,2.89,0,5.37,1.32,5.37,4.38C183.62,51.67,178.48,55.82,172.6,55.82Z"/><path d="M211,63.47c-.92,0-1.29-.71-2-.71-1.57,0-4.32,4-5.14,5.44-.75.88-.81,1.83-2.41,1.87-1.4,0-2.76-.31-2.76-1.16,0-.65,1.53-4.69,1.53-6.19a1,1,0,0,0-.3-.81,4.72,4.72,0,0,1-2.82,2.1c-.28,3.57-5.17,6.46-9.79,6.46-3.85,0-5.48-1.63-5.48-3.8,0-4.05,5.68-9.9,12.78-9.9a10.67,10.67,0,0,1,1.13,0c.47,0,.64.44.64,1,0,1-.58,2.28-1.12,2.45-4.25.37-9.28,2.24-9.28,5.44,0,.71.34,1.36,1.5,1.36A6.92,6.92,0,0,0,194.29,61h0c4,0,7.34-3.5,8.87-3.5.72,0,1,.61,1,1.4a10.4,10.4,0,0,1-.74,3.33c0,.1,0,.17.1.17h0c.44,0,3.78-4.35,6.8-4.35s1.12,2.14,3.54,2.14c1.05,0,1.7-.75,2.31-.78.2,0,.3.3.3.61C216.49,61.87,213,63.47,211,63.47Z"/><path d="M231.42,70c-3,0-3.13-1.67-3.13-2,0-1.12,0-1.12-.06-1.12-.28,0-3.81,2.86-7.48,2.86-2.69,0-3.2-1.23-3.2-3.13,0-1.12,1.09-4,1.09-4.46s-.41-.54-.92-.54a16.41,16.41,0,0,0-2.82.54.81.81,0,0,1-.88-.85c0-2.07,3.77-3.67,5.4-3.67,1,0,2.48.41,2.48,1.91s-.61,3.12-.61,4.11c0,.71.31,1.16,1.39,1.16,4.87,0,8-5.17,9.66-5.17a1.13,1.13,0,0,1,1.16,1c0,1.12-1.19,2.34-1.19,4.42a1.25,1.25,0,0,0,1.42,1.36c1,0,1.33-.41,1.91-.41s.75.24.75.61C236.39,67.75,234.28,70,231.42,70Z"/><path d="M253.76,70.07c-1.9,0-2-1.53-2-3.23,0-.45-.17-.68-.57-.68-2.38,0-3.88,4.14-5.58,4.14-.75,0-1.29-.34-1.29-.81,0-1.09.1-1.94.1-2.55,0-.27-.14-.48-.65-.48-2.07,0-2.95,3.47-5.33,3.47-.79,0-1.7-.51-1.7-1.12s1.22-2.42,1.22-4.9c0-.92-.31-1.15-.71-1.15l-1.74.37a1,1,0,0,1-1-1.12c0-1.36,1.53-3.44,5.14-3.44,2,0,2.31.75,2.31,1.23,0,.92-.44,1.83-.44,2.34,0,.24.1.38.37.38.78,0,2.48-1.63,3.91-1.63,1.26,0,1.46.78,1.46,1.53,0,.4-.07.81-.07,1.08s0,.34.17.34c.31,0,2.45-2.68,5.75-2.68,1.19,0,1.9.44,1.94,1.7,0,.61-.14,1.26-.14,2,0,1,.27,1.84,1.46,1.84.34,0,1-.21,1.36-.21a.57.57,0,0,1,.58.65C258.28,68.23,255.63,70.07,253.76,70.07Z"/><path d="M261.68,66.36s0,.82,3,.82c2.48,0,3.26-1.47,4.52-1.47.68,0,1.06.34,1.06.85,0,2.28-4,4-7.76,4-4.45,0-6.32-2-6.32-4.49,0-3.81,4.49-8.71,10.57-8.71,3.06,0,4.29,1,4.29,2.28C271,62.11,266.61,65.75,261.68,66.36ZM265.22,60c-1.4,0-4.15,1.8-4.15,3.4,0,.21.07.34.34.34,1.67,0,4.76-2,4.76-3.23C266.17,60.1,265.69,60,265.22,60Z"/><path d="M286.4,60.78h-2.14a26.68,26.68,0,0,0-5.07.38,14.11,14.11,0,0,0-.17,2.38c0,1.83.78,3.23,2,3.23,1.74,0,2.45-1.29,3.51-1.29a1.07,1.07,0,0,1,.95,1.08c0,2-2.55,3.68-5.14,3.68s-5.47-1.81-5.47-6.84c0-.44,0-.88,0-1.32a.83.83,0,0,1-.27,0,13.77,13.77,0,0,1-1.39.14c-.85,0-1.29-.31-1.29-1.13a2.51,2.51,0,0,1,1.25-2.27,16.75,16.75,0,0,1,2.21-.51c1.26-6.05,4.39-11.46,6.09-11.46,1.09,0,1.6.85,1.6,1.87,0,2.28-1.87,5.2-3.06,8.87,1.32-.13,2.58-.24,3.64-.24,1.87,0,3.87.38,3.87,2.18C287.52,60.27,287.35,60.78,286.4,60.78Z"/><path d="M51.44,123.05H42.19L29.89,98.59H26.11v-9.5h17v9.19l-3,.31,6.69,12.82,6.74-12.82-3-.31V89.09h17v9.5H63.75Z"/><path d="M85.94,113.4l7.25,1.89c-2.4,6-6.89,8.63-11.9,8.63-9.5,0-14.19-6.94-14.19-13.79,0-8.83,6.89-13.22,13.68-13.22,6.64,0,13.18,4.18,13.18,12.46a11.69,11.69,0,0,1-.31,2.55H76.24a5.43,5.43,0,0,0,5.56,4A4.62,4.62,0,0,0,85.94,113.4Zm-1.12-6.18c0-2.3-2.51-2.81-4.09-2.81a4.65,4.65,0,0,0-4.24,2.81Z"/><path d="M108.24,97c2.4,0,4.7.66,6,2.24l.26-1.68h11.28V107h-3.16v13.48c0,9.45-6.59,14.3-13.43,14.3a14.36,14.36,0,0,1-12.26-6.84l6.43-4.5a7.37,7.37,0,0,0,5.47,2.91c2.4,0,4.49-1.73,4.85-5.82a13.39,13.39,0,0,1-6.64,1.89c-5.92,0-10.88-4.55-10.88-11.75C96.13,103.85,100.22,97,108.24,97ZM109.51,115c2.76,0,3.94-2.4,3.94-4.81s-1.08-4.49-3.83-4.49-4.34,2-4.34,5A4,4,0,0,0,109.51,115Z"/><path d="M140.12,97c2.4,0,4.7.66,6,2.24l.26-1.68h11.29V107h-3.17v13.48c0,9.45-6.59,14.3-13.43,14.3a14.36,14.36,0,0,1-12.26-6.84l6.44-4.5a7.34,7.34,0,0,0,5.46,2.91c2.4,0,4.49-1.73,4.85-5.82a13.37,13.37,0,0,1-6.64,1.89c-5.92,0-10.87-4.55-10.87-11.75C128,103.85,132.1,97,140.12,97ZM141.4,115c2.75,0,3.93-2.4,3.93-4.81s-1.07-4.49-3.83-4.49-4.34,2-4.34,5A4,4,0,0,0,141.4,115Z"/><path d="M174.17,113.61h3.22v9.44H161.66v-9.44h3.21V107h-3.21V97.52h12.51ZM163.75,90.37a5.31,5.31,0,0,1,5.57-5.57,5.39,5.39,0,0,1,5.61,5.52,5.32,5.32,0,0,1-5.56,5.62A5.47,5.47,0,0,1,163.75,90.37Z"/><path d="M198.47,113.4l7.25,1.89c-2.4,6-6.89,8.63-11.9,8.63-9.5,0-14.2-6.94-14.2-13.79,0-8.83,6.9-13.22,13.69-13.22,6.64,0,13.18,4.18,13.18,12.46a11.69,11.69,0,0,1-.31,2.55H188.76a5.45,5.45,0,0,0,5.57,4A4.63,4.63,0,0,0,198.47,113.4Zm-1.13-6.18c0-2.3-2.5-2.81-4.08-2.81a4.65,4.65,0,0,0-4.24,2.81Z"/><path d="M226.88,89l22-.31c6.74,0,14,1.79,14,9.55a6.65,6.65,0,0,1-3.37,6.18,8.4,8.4,0,0,1,3.93,7.41c0,8.37-7.86,11.54-14.91,11.54l-21.65-.31v-9.49h3.32v-15h-3.32Zm12.92,12.77h10.93a2.07,2.07,0,0,0,2.09-2,1.8,1.8,0,0,0-2-1.79s-1.18,0-11,.15Zm0,12c2.6,0,8.68.1,9.65.1,2.55,0,4-1.27,4-2.45s-1.22-2.14-4-2.14h-9.6Z"/><path d="M286.18,120.86c-1.79,2.45-4.7,2.7-7.1,2.7-5.77,0-9.55-4-9.55-10.16V107h-3.11V97.52h14.65v8.68l-2.14.66v5.57a2.13,2.13,0,0,0,2.3,2.25,5.57,5.57,0,0,0,5-4.34v-3.48l-2.24-.61V97.52h14.7V107h-3.16v6.64h3.16v9.44H286.18Z"/><path d="M324.85,106.35c-3.68,0-8.48,1.64-8.48,3.73v3.53h3.22v9.44H303.91v-9.44h3.16V107h-3.16V97.52h11.28l.46,2.6a17.72,17.72,0,0,1,9.2-3.21Z"/><path d="M338.62,97c2.4,0,4.7.66,6,2.24l.26-1.68h11.29V107H353v13.48c0,9.45-6.59,14.3-13.43,14.3a14.36,14.36,0,0,1-12.26-6.84l6.44-4.5a7.34,7.34,0,0,0,5.46,2.91c2.4,0,4.5-1.73,4.85-5.82a13.37,13.37,0,0,1-6.64,1.89c-5.92,0-10.87-4.55-10.87-11.75C326.52,103.85,330.6,97,338.62,97ZM339.9,115c2.75,0,3.93-2.4,3.93-4.81s-1.07-4.49-3.83-4.49-4.34,2-4.34,5A4,4,0,0,0,339.9,115Z"/><path d="M377.29,113.4l7.26,1.89c-2.4,6-6.9,8.63-11.9,8.63-9.5,0-14.2-6.94-14.2-13.79,0-8.83,6.89-13.22,13.69-13.22,6.64,0,13.17,4.18,13.17,12.46a12.06,12.06,0,0,1-.3,2.55H367.59a5.43,5.43,0,0,0,5.57,4A4.61,4.61,0,0,0,377.29,113.4Zm-1.12-6.18c0-2.3-2.5-2.81-4.09-2.81a4.62,4.62,0,0,0-4.23,2.81Z"/><path d="M409.6,106.35c-3.68,0-8.48,1.64-8.48,3.73v3.53h3.22v9.44H388.66v-9.44h3.16V107h-3.16V97.52h11.28l.46,2.6a17.72,17.72,0,0,1,9.2-3.21Z"/></g></g></svg>