<svg xmlns="http://www.w3.org/2000/svg" viewBox="0 0 201.8 51.74"><defs><style>.cls-1{fill:#ffffa1;}.cls-2{fill:#fff6c0;}</style></defs><title>MAYO</title><g id="Layer_2" data-name="Layer 2"><g id="MAYO"><path class="cls-1" d="M87,0S62.29,1.52,52.49,2.38,29.07,7.87,28,8.3L7.73,16.19A12.11,12.11,0,0,0,2.59,35h0A12.1,12.1,0,0,0,9.88,39.4s23.9,6.1,34.5,6.69c11.52.63,20.05,3.19,33.91,5.11s57.05-1.92,57.05-1.92a12.16,12.16,0,0,0,2.25-.21l51.26-9.67A12.1,12.1,0,0,0,196.14,35h0A12.11,12.11,0,0,0,191,16.19L170.76,8.3a12.24,12.24,0,0,0-3.42-.79s-47.9-4.28-55.79-6S87.69,0,87,0Z"/><path class="cls-2" d="M86.69,1S66.05,3.05,56.24,3.83s-25.86,6-34.44,8.66S.64,26,5.66,31.86h0a12.29,12.29,0,0,0,7.29,4s23.9,5.56,34.5,6.1c11.52.58,20,2.91,33.9,4.66s57.06-1.75,57.06-1.75a13.06,13.06,0,0,0,2.25-.19l51.26-8.82a12.32,12.32,0,0,0,7.29-4h0c5-5.83,2.44-14.42-5.14-17.11L173.82,7.56a13.1,13.1,0,0,0-3.41-.71s-47.9-3.91-55.79-5.46S87.34.9,86.69,1Z"/></g></g></svg>