<svg xmlns="http://www.w3.org/2000/svg" xmlns:xlink="http://www.w3.org/1999/xlink" viewBox="0 0 172.62 67.81"><defs><style>.cls-1{fill:url(#linear-gradient);}.cls-2{fill:#65ac52;}.cls-3{fill:url(#linear-gradient-2);}.cls-4{fill:url(#linear-gradient-3);}.cls-5{fill:url(#linear-gradient-4);}.cls-6{fill:url(#linear-gradient-5);}.cls-7{fill:url(#linear-gradient-6);}.cls-8{fill:url(#linear-gradient-7);}.cls-9{fill:url(#linear-gradient-8);}.cls-10{fill:url(#linear-gradient-9);}.cls-11{fill:url(#linear-gradient-10);}</style><linearGradient id="linear-gradient" x1="87.01" y1="77.7" x2="112.82" y2="55.89" gradientTransform="matrix(-0.89, -0.13, -0.12, 0.83, 134.89, -19.72)" gradientUnits="userSpaceOnUse"><stop offset="0.2" stop-color="#fff"/><stop offset="0.22" stop-color="#f2f8f1"/><stop offset="0.31" stop-color="#cde4c7"/><stop offset="0.4" stop-color="#add3a3"/><stop offset="0.5" stop-color="#93c585"/><stop offset="0.6" stop-color="#7eba6f"/><stop offset="0.71" stop-color="#70b25e"/><stop offset="0.83" stop-color="#68ad55"/><stop offset="1" stop-color="#65ac52"/></linearGradient><linearGradient id="linear-gradient-2" x1="153.88" y1="-19.09" x2="181.38" y2="-42.33" gradientTransform="matrix(-0.66, -0.76, 0.76, -0.66, 179, 150.04)" gradientUnits="userSpaceOnUse"><stop offset="0.2" stop-color="#fff"/><stop offset="0.33" stop-color="#fcfdfc"/><stop offset="0.46" stop-color="#f2f8f1"/><stop offset="0.57" stop-color="#e2efdf"/><stop offset="0.69" stop-color="#cce3c5"/><stop offset="0.8" stop-color="#aed4a4"/><stop offset="0.9" stop-color="#8bc17d"/><stop offset="1" stop-color="#65ac52"/></linearGradient><linearGradient id="linear-gradient-3" x1="149.9" y1="76.02" x2="177.41" y2="52.78" gradientTransform="matrix(-0.59, -0.68, -0.64, 0.55, 200.87, 118.55)" xlink:href="#linear-gradient-2"/><linearGradient id="linear-gradient-4" x1="138.89" y1="-0.81" x2="166.4" y2="-24.06" gradientTransform="translate(-50.62 18.84) rotate(10.98)" gradientUnits="userSpaceOnUse"><stop offset="0.2" stop-color="#fff"/><stop offset="0.26" stop-color="#edf5ea"/><stop offset="0.45" stop-color="#bddbb4"/><stop offset="0.62" stop-color="#97c78a"/><stop offset="0.77" stop-color="#7cb86b"/><stop offset="0.91" stop-color="#6baf59"/><stop offset="1" stop-color="#65ac52"/></linearGradient><linearGradient id="linear-gradient-5" x1="167.05" y1="19.31" x2="184.07" y2="4.93" gradientTransform="translate(93.6 -119.98) rotate(67.97)" xlink:href="#linear-gradient-2"/><linearGradient id="linear-gradient-6" x1="133.3" y1="54.31" x2="160.8" y2="31.06" gradientTransform="matrix(0.89, 0.17, 0.16, -0.83, -48.42, 57.12)" gradientUnits="userSpaceOnUse"><stop offset="0.2" stop-color="#fff"/><stop offset="0.27" stop-color="#edf5eb"/><stop offset="0.53" stop-color="#b3d6aa"/><stop offset="0.74" stop-color="#89bf7a"/><stop offset="0.91" stop-color="#6fb15d"/><stop offset="1" stop-color="#65ac52"/></linearGradient><linearGradient id="linear-gradient-7" x1="99.3" y1="186.57" x2="121.57" y2="167.75" gradientTransform="matrix(0.1, 0.48, 0.72, -0.07, -117.99, 14.07)" xlink:href="#linear-gradient-2"/><linearGradient id="linear-gradient-8" x1="7.74" y1="-3.51" x2="35.25" y2="-26.75" gradientTransform="matrix(-0.74, -0.32, -0.33, 0.74, 157.25, 41.1)" xlink:href="#linear-gradient-2"/><linearGradient id="linear-gradient-9" x1="116.61" y1="121.39" x2="133.63" y2="107.01" gradientTransform="matrix(-0.68, 0.44, 0.44, 0.68, 126.33, -117.46)" xlink:href="#linear-gradient-2"/><linearGradient id="linear-gradient-10" x1="-12.05" y1="57.51" x2="15.45" y2="34.27" gradientTransform="matrix(-0.66, -0.29, 0.28, -0.62, 138.07, 65.53)" xlink:href="#linear-gradient-2"/></defs><title>MICROGREENS</title><g id="Layer_2" data-name="Layer 2"><g id="MICROGREENS"><path class="cls-1" d="M55.29,34.56a37.9,37.9,0,0,1-23-13.17c-.94-1.15-11.16-10.64-11.16-10.64-.4-.38-1,.15-.62.55,0,0,6.94,7.15,10.5,11.13s9,12.19,23.42,14.41a.43.43,0,0,0,.6-.24l.49-1.55A.4.4,0,0,0,55.29,34.56Z"/><ellipse class="cls-2" cx="35.05" cy="17.79" rx="5.48" ry="3.37" transform="matrix(0.98, -0.18, 0.18, 0.98, -2.66, 6.7)"/><ellipse class="cls-2" cx="24.05" cy="7.8" rx="5.37" ry="3.91" transform="translate(6.9 26.38) rotate(-65.26)"/><ellipse class="cls-2" cx="20.6" cy="17.5" rx="3.66" ry="5.73" transform="matrix(0.04, -1, 1, 0.04, 2.21, 37.31)"/><ellipse class="cls-2" cx="38.61" cy="42.79" rx="3.97" ry="6.13" transform="translate(-11.75 14.76) rotate(-18.84)"/><path class="cls-3" d="M69.88,54C59.55,42.13,42.27,38,40.58,37.86s-17.13-3.64-17.13-3.64a.48.48,0,0,1,.19-.95S34.82,35.2,40.87,36,61,39.55,71.64,51.72a.48.48,0,0,1,.11.73L70.5,53.92A.48.48,0,0,1,69.88,54Z"/><ellipse class="cls-2" cx="20.8" cy="38.93" rx="6.35" ry="4.35" transform="translate(-22.95 33.05) rotate(-54.23)"/><ellipse class="cls-2" cx="29.86" cy="29.34" rx="4.35" ry="6.35" transform="translate(-11.27 21.55) rotate(-33.77)"/><ellipse class="cls-2" cx="63.21" cy="36.05" rx="3.37" ry="5.48" transform="translate(0.37 72.74) rotate(-59.98)"/><path class="cls-4" d="M70,64.76C60.7,54,58.74,38.48,58.77,37s-1.56-15.34-1.56-15.34c-.06-.55-.86-.53-.83,0,0,0,.63,10,.74,15.29s1.22,17.92,10.74,29a.44.44,0,0,0,.62.21l1.38-.86A.41.41,0,0,0,70,64.76Z"/><ellipse class="cls-2" cx="61.53" cy="20.08" rx="5.37" ry="3.91" transform="translate(-2.76 27.57) rotate(-24.71)"/><ellipse class="cls-2" cx="52.41" cy="26.43" rx="3.66" ry="5.73" transform="translate(-2.69 46.68) rotate(-46.94)"/><ellipse class="cls-2" cx="107.84" cy="31.77" rx="3.97" ry="6.13" transform="translate(22.34 104.78) rotate(-56.91)"/><path class="cls-5" d="M76.31,42.22c15.45,3,31.6-4.42,33-5.35s15.73-7.69,15.73-7.69a.48.48,0,0,1,.44.86s-10,5.37-15.23,8.49-18,9.59-33.94,6.58a.48.48,0,0,1-.54-.5l.09-1.93A.48.48,0,0,1,76.31,42.22Z"/><ellipse class="cls-2" cx="124.24" cy="23.83" rx="4.35" ry="6.35" transform="translate(-0.86 5.01) rotate(-2.3)"/><ellipse class="cls-2" cx="123.02" cy="36.97" rx="4.35" ry="6.35" transform="translate(49.57 142.35) rotate(-71.85)"/><ellipse class="cls-2" cx="153.81" cy="38.93" rx="5.05" ry="3.46" transform="translate(68.9 172.96) rotate(-71.85)"/><path class="cls-6" d="M132.3,42c9-1.22,13.95-1,15.5-.34s15,9,15,9a.48.48,0,0,1-.47.84s-10.51-4.54-15.43-8.15c-1.28-.94-4.07.67-13.58,1.35a.48.48,0,0,1-.68-.28l-.6-1.83A.48.48,0,0,1,132.3,42Z"/><ellipse class="cls-2" cx="166.86" cy="47.04" rx="6.35" ry="4.35" transform="translate(3.52 105.13) rotate(-35.32)"/><ellipse class="cls-2" cx="152.73" cy="53.74" rx="3.79" ry="5.3"/><ellipse class="cls-2" cx="92.63" cy="52.25" rx="5.48" ry="3.37" transform="translate(-6.41 13.49) rotate(-8.05)"/><path class="cls-7" d="M69.59,33.84c13.94,2.71,25.07,13.74,26,14.93s10.69,11.12,10.69,11.12c.38.39,1-.11.65-.52,0,0-6.63-7.45-10-11.58s-12-13.36-26.32-16.19a.43.43,0,0,0-.62.21l-.55,1.53A.41.41,0,0,0,69.59,33.84Z"/><ellipse class="cls-2" cx="103.2" cy="62.71" rx="5.37" ry="3.91" transform="translate(0.24 125.81) rotate(-62.79)"/><ellipse class="cls-2" cx="107.06" cy="53.16" rx="3.66" ry="5.73" transform="translate(44.81 155.21) rotate(-85.02)"/><ellipse class="cls-2" cx="12.96" cy="52.23" rx="2.42" ry="4.39" transform="translate(-40.65 47.6) rotate(-71.12)"/><path class="cls-8" d="M32.23,47c-8,2.2-12,3.89-13,4.77s-8.11,9.74-8.11,9.74c-.28.35.49.64.8.31,0,0,6.52-5.85,8.85-9.41.6-.93,3.69-.93,11.88-3.59.28,0,.49-.19.43-.37l-.38-1.21A.48.48,0,0,0,32.23,47Z"/><ellipse class="cls-2" cx="6.06" cy="60.86" rx="2.77" ry="6.07" transform="translate(-54.99 64.46) rotate(-87.69)"/><ellipse class="cls-2" cx="20.97" cy="60.03" rx="2.88" ry="4.24" transform="translate(-42.35 54.24) rotate(-65.52)"/><ellipse class="cls-2" cx="144.11" cy="17.43" rx="3.21" ry="4.94" transform="translate(123.38 161.1) rotate(-88.69)"/><path class="cls-9" d="M160.08,38.87c-11.58-5.12-18.81-17.46-19.32-18.74s-6.82-12.34-6.82-12.34a.39.39,0,0,0-.68.37s4.1,8.17,6.12,12.65,7.47,14.67,19.35,20a.38.38,0,0,0,.58-.09l.84-1.32A.4.4,0,0,0,160.08,38.87Z"/><ellipse class="cls-2" cx="136.96" cy="4.61" rx="5.15" ry="3.5" transform="translate(50.63 111.04) rotate(-52.88)"/><ellipse class="cls-2" cx="131.68" cy="13.91" rx="3.52" ry="5.11" transform="translate(81.23 136.34) rotate(-73.63)"/><ellipse class="cls-2" cx="91.88" cy="7.05" rx="4.09" ry="2.78" transform="translate(58.22 92.84) rotate(-72.97)"/><path class="cls-10" d="M104.66,19c-5.37-4.94-8.73-7.09-10.07-7.35s-14.08-.92-14.08-.92a.39.39,0,0,0-.07.77s9,1.82,14,1.67c1.28,0,2.38,2.32,8.34,7.14a.38.38,0,0,0,.58.13l1.24-.94A.39.39,0,0,0,104.66,19Z"/><ellipse class="cls-2" cx="79.52" cy="6.45" rx="3.51" ry="5.12" transform="translate(2.33 26.63) rotate(-19.29)"/><ellipse class="cls-2" cx="85.74" cy="17.4" rx="4.29" ry="3.04" transform="translate(22.46 77.81) rotate(-55.14)"/><ellipse class="cls-2" cx="144.66" cy="38.03" rx="2.73" ry="4.41" transform="translate(18.13 117.81) rotate(-46.96)"/><path class="cls-11" d="M168.4,36.39c-10.46-4.61-22.91-2.39-24.05-2s-12.2,2.48-12.2,2.48c-.44.08-.61-.54-.19-.65,0,0,7.82-1.9,12-3.09a36.92,36.92,0,0,1,24.87,1.34.35.35,0,0,1,.31.42l-.34,1.28A.34.34,0,0,1,168.4,36.39Z"/><ellipse class="cls-2" cx="134.72" cy="32" rx="2.97" ry="4.61" transform="translate(40.01 133.02) rotate(-60.21)"/></g></g></svg>