<svg xmlns="http://www.w3.org/2000/svg" viewBox="0 0 208.53 67.12"><defs><style>.cls-1{fill:#a4a64a;}.cls-2{fill:#767d25;}.cls-3{fill:#898c1c;}.cls-4{fill:#768425;}</style></defs><title>PICKLE</title><g id="Layer_2" data-name="Layer 2"><g id="PICKLE"><path class="cls-1" d="M.08,13.21C3.53,8.76,9.7,8.14,17,6.68,31.42,3.83,45.9,4.1,53.59,3.9,66.44,3.58,173,24.12,185.73,29.29c18.76,7.62,21.85,16,22.72,21.24.59,4.9-2.39,10.31-5.33,12-6.78,4-15.05.64-45.83-9C135.44,46.64,24.64,21.66,20.62,20.85a67.4,67.4,0,0,0-7.29-1.29c-2.05-.16-3.95-.45-5.35-.48-2.11.14-7.6-1.79-7.81-2.89A9,9,0,0,1,.08,13.21Z"/><path class="cls-2" d="M7.71,17.09a103.36,103.36,0,0,1,12,1.11c4,.81,115.77,25.68,137.61,32.56,30.78,9.69,39.67,14.33,46.45,10.33s10.44-20-18-31.55C164.57,21,74.83,3.61,53.58,4.15,45.88,4.34,31.4,2.71,17,5.56,9.69,7,4.36,7.71.69,12.21-2.47,16.08,7.71,17.09,7.71,17.09Z"/><path class="cls-3" d="M9.65,15.46a111.93,111.93,0,0,1,11.83,1c4,.73,111.83,23.24,133.45,29.44,30.47,8.73,40.1,15.87,46.81,12.26s10.34-18-17.81-28.43C163,22,74.52,3.79,53.48,4.28c-7.61.18-20.38-1.78-34.61.79C11.61,6.38,6.34,7,2.71,11.06-.42,14.54,9.65,15.46,9.65,15.46Z"/><path class="cls-1" d="M196.48,48c.29-1.76-52.44-22.13-98.1-29.64s-80.83-10.08-81-9.07S51.9,12.64,97.57,20.15,196.2,49.8,196.48,48Z"/><path class="cls-1" d="M189.94,10.23c.69.85.66,1.75.37,3.65-.19,1.2-5.07,2.66-7,2.51-1.28,0-3,.34-4.85.52a49.92,49.92,0,0,0-6.61,1.41c-3.64.88-104,29.62-123.84,37.12C20.14,66,12.64,69.69,6.5,65.32c-2.66-1.89-5.37-7.79-4.84-13.14.8-5.72,3.6-14.85,20.59-23.16C41.41,19.64,122.73.73,142,1.32c7,.21,20.1-1.57,33.13,1.54,6.65,1.59,11.7,2.52,14.82,7.37"/><path class="cls-4" d="M183.56,14.44a78.75,78.75,0,0,0-10.83,1.21c-3.64.89-104.9,28-124.7,35.52C20.14,61.74,12.08,66.81,5.94,62.44S-3.52,40.62,22.25,28C41.41,18.64,122.73-.27,142,.32c7,.21,20.1-1.57,33.13,1.54,6.65,1.59,11.47,2.34,14.8,7.25C192.78,13.33,183.56,14.44,183.56,14.44Z"/><path class="cls-3" d="M178.48,12.68S147,17.4,136.42,20.46,82.86,38.34,59.35,42.9c-27.47,5.32-43.22,18.84-49,14.91s-6.95-16,17.37-27.35C45.78,22,115.88,6.43,123.19,6S157.64.49,169.94,3.29c6.27,1.43,10.27,1.39,13.41,5.81C186.05,12.9,178.48,12.68,178.48,12.68Z"/><path class="cls-1" d="M172.15,8c-.49-1.71-35.73.3-80.23,13s-75.48,25.18-75,26.89S49.46,35.29,94,22.57,172.64,9.7,172.15,8Z"/></g></g></svg>