<svg xmlns="http://www.w3.org/2000/svg" xmlns:xlink="http://www.w3.org/1999/xlink" viewBox="0 0 197.2 64.89"><defs><style>.cls-1{fill:url(#linear-gradient);}.cls-2{fill:#fff6c0;}.cls-3{fill:url(#linear-gradient-2);}</style><linearGradient id="linear-gradient" x1="59.89" y1="66.95" x2="145.77" y2="-5.62" gradientUnits="userSpaceOnUse"><stop offset="0" stop-color="#fcee21"/><stop offset="0.01" stop-color="#fced21"/><stop offset="0.59" stop-color="#fe881b"/><stop offset="0.86" stop-color="#ff6018"/></linearGradient><linearGradient id="linear-gradient-2" x1="15.04" y1="48.58" x2="238" y2="-9.75" gradientTransform="matrix(-1.17, 0.2, -0.18, -1.1, 204.74, 48.52)" xlink:href="#linear-gradient"/></defs><title>SAUCE</title><g id="Layer_2" data-name="Layer 2"><g id="SAUCE"><path class="cls-1" d="M136.47,0,60.29,6.17a18.83,18.83,0,0,0-5.81.93L12.32,21C4.7,23.49,0,24.43,0,32.44H0A18.56,18.56,0,0,0,12.77,50.08L54.93,64a18.79,18.79,0,0,0,5.81.93h75.73a18.72,18.72,0,0,0,5.8-.93l42.17-13.88A18.56,18.56,0,0,0,197.2,32.44h0a18.55,18.55,0,0,0-12.76-17.63L142.27.93A18.43,18.43,0,0,0,136.47,0Z"/><path class="cls-2" d="M66.43,15.35l-.87-.52a12,12,0,0,0-2.94-1.27l-1-.29a.77.77,0,0,1-.48-1l.36-.84c.15-.36.37-.48,1-.33l1,.27a12.2,12.2,0,0,1,3,1.26l.93.56c.58.39.63.61.48,1l-.36.84A.78.78,0,0,1,66.43,15.35Z"/><path class="cls-3" d="M85,58.09c3.75,3.24,36.48,1.53,44.78,1.21s14.72-4.12,22.41-10.71,19.64-9.71,19.64-9.71c15.89-5.16,6.79-17.09,6.79-17.09C177.61,16,144.2,6.4,124.65,5s-46.44,5.78-76.84,12.9S-.4,30.13.39,36.82,22.23,61.55,34.82,58.25,81.22,54.85,85,58.09Z"/><path class="cls-2" d="M154.26,36l-.54-.15a3.25,3.25,0,0,0-1.75,0l-.58.15c-.25,0-.45-.34-.45-.77v-1c0-.43.08-.64.45-.77l.54-.15a3.25,3.25,0,0,1,1.75,0l.58.16c.38.13.45.34.45.77v1C154.71,35.63,154.51,36,154.26,36Z"/><path class="cls-2" d="M93.62,52.94l.3-.71a4.57,4.57,0,0,1,1.46-1.88l.65-.51c.21-.27,0-.77-.43-1.11l-1-.81c-.45-.35-.74-.44-1.19-.14l-.61.46a4.66,4.66,0,0,0-1.47,1.88l-.33.76c-.17.51,0,.76.43,1.11l1,.81C92.88,53.15,93.41,53.21,93.62,52.94Z"/><path class="cls-2" d="M25.72,40.39l.88.21a7.1,7.1,0,0,1,2.59,1.22l.78.6a.88.88,0,0,0,1.08-.57l.55-1.14a.84.84,0,0,0-.25-1.2L30.63,39a6.91,6.91,0,0,0-2.58-1.23l-.95-.24a.84.84,0,0,0-1.09.57l-.54,1.14A.89.89,0,0,0,25.72,40.39Z"/><path class="cls-2" d="M113.1,11l-1-.07a23.21,23.21,0,0,0-3.23,0l-1.09.08c-.46,0-.83-.17-.83-.38v-.5c0-.22.14-.33.83-.39l1-.08a21.77,21.77,0,0,1,3.23,0l1.09.08c.7.07.84.17.84.39v.5C113.94,10.8,113.56,11,113.1,11Z"/><path class="cls-2" d="M156.14,9.81l-.23-.2a1.46,1.46,0,0,0-.84-.39l-.33,0c-.12-.06-.13-.3,0-.55l.26-.58c.11-.25.21-.36.42-.35l.31,0a1.52,1.52,0,0,1,.85.39l.24.22c.15.16.13.3,0,.54l-.27.58C156.45,9.71,156.26,9.87,156.14,9.81Z"/></g></g></svg>