<svg xmlns="http://www.w3.org/2000/svg" viewBox="0 0 182.21 72.75"><defs><style>.cls-1{fill:#d34527;}.cls-2{fill:#e2452b;}.cls-3{fill:#e04e3b;}.cls-4{fill:#c9362b;}</style></defs><title>TOMATO</title><g id="Layer_2" data-name="Layer 2"><g id="TOMATO"><path class="cls-1" d="M182.21,28.13C182.21,12.59,141.42,0,91.1,0S0,12.59,0,28.13V44.62C0,60.16,40.79,72.75,91.1,72.75s91.11-12.59,91.11-28.13Z"/><ellipse class="cls-2" cx="91.1" cy="28.13" rx="88.88" ry="28.13"/><ellipse class="cls-3" cx="91.2" cy="26.74" rx="80.7" ry="23.79"/><ellipse class="cls-4" cx="91.1" cy="27" rx="10.17" ry="3"/><ellipse class="cls-4" cx="76.87" cy="13.85" rx="2.03" ry="11.96" transform="translate(15.53 62.21) rotate(-48.46)"/><ellipse class="cls-4" cx="105.42" cy="40.02" rx="2.37" ry="11.61" transform="translate(5.65 92.56) rotate(-48.56)"/><ellipse class="cls-4" cx="50.47" cy="31.5" rx="23.58" ry="2.16" transform="translate(-3.09 5.59) rotate(-6.16)"/><ellipse class="cls-4" cx="129.25" cy="21.32" rx="23.56" ry="2.16" transform="translate(-1.7 17.73) rotate(-7.8)"/></g></g></svg>