<svg xmlns="http://www.w3.org/2000/svg" viewBox="0 0 209.48 108.86"><defs><style>.cls-1{fill:#b2702f;stroke:#ce8b49;stroke-miterlimit:10;stroke-width:3px;}.cls-2{fill:#f4a142;}.cls-3{fill:#ffbe7d;}</style></defs><title>TOP_BUN</title><g id="Layer_2" data-name="Layer 2"><g id="TOP_BUN"><g id="topBun"><path class="cls-1" d="M207.8,59.31c0-31.84-46.24-57.64-103.28-57.64S1.73,30.94,1.73,62.13c0,2.94,0,2.76-.05,6.77,0,20.67,45.85,38.46,97.62,38.46,57,0,108.5-7,108.5-38.87Z"/><path class="cls-2" d="M209.48,56.38C209.48,25.69,162.71,0,104.74,0S.06,29,.06,59.1c0,2.83,0,2.66-.06,6.53C0,85.56,47.26,102,99.88,102c58,0,109.6-6.08,109.6-36.77Z"/></g><g id="SESEME"><path class="cls-3" d="M110.5,35.58l-2.27,2.34a1.43,1.43,0,0,0-.08,2.19l.47.32a1.43,1.43,0,0,0,2-.87l1.2-3.13C112.37,35.06,111.58,34.57,110.5,35.58Z"/><path class="cls-3" d="M148.23,35.08l-2.93,1.45a1.43,1.43,0,0,0-.81,2l.34.46a1.43,1.43,0,0,0,2.19-.15l2.17-2.55C150.16,35.22,149.58,34.5,148.23,35.08Z"/><path class="cls-3" d="M126.5,48.23l.86,3.15a1.43,1.43,0,0,0,1.84,1.18l.52-.24a1.43,1.43,0,0,0,.27-2.18l-2.09-2.61C127,46.37,126.18,46.79,126.5,48.23Z"/><path class="cls-3" d="M42.75,49.82,40.6,52.27a1.45,1.45,0,0,0,0,2.2l.49.29a1.42,1.42,0,0,0,2-1l1-3.19C44.59,49.21,43.78,48.76,42.75,49.82Z"/><path class="cls-3" d="M76.48,50.08l.21-3.26a1.42,1.42,0,0,0-1.36-1.71l-.57.06a1.43,1.43,0,0,0-1,2l1.12,3.15C75.4,51.68,76.31,51.54,76.48,50.08Z"/><path class="cls-3" d="M131.47,19.7l.45,3.23a1.44,1.44,0,0,0,1.68,1.41l.55-.18a1.43,1.43,0,0,0,.54-2.12L133,19.18C132.2,17.91,131.34,18.23,131.47,19.7Z"/><path class="cls-3" d="M63,29.13l-1.86,2.69A1.44,1.44,0,0,0,61.37,34l.52.24A1.42,1.42,0,0,0,63.73,33l.67-3.28C64.71,28.32,63.85,28,63,29.13Z"/><path class="cls-3" d="M48.71,35.75,46.25,33.6a1.43,1.43,0,0,0-2.19,0l-.3.49a1.43,1.43,0,0,0,1,2l3.19,1C49.32,37.58,49.76,36.78,48.71,35.75Z"/><path class="cls-3" d="M45.45,20.44l2,2.59c.54.78,1.52,1.09,2,.63l.33-.34c.46-.46.14-1.45-.64-2l-2.76-1.85C45.12,18.67,44.62,19.23,45.45,20.44Z"/><path class="cls-3" d="M74.7,15.2l-1.53,2.86c-.49.82-.35,1.85.26,2.07l.44.16c.62.23,1.38-.48,1.54-1.41l.51-3.28C76.16,14.16,75.44,13.94,74.7,15.2Z"/><path class="cls-3" d="M98.59,16.52l-1.28-3c-.33-.88-1.21-1.43-1.77-1.09l-.41.25c-.56.34-.49,1.37.14,2.08l2.24,2.45C98.48,18.31,99.11,17.89,98.59,16.52Z"/><path class="cls-3" d="M86.89,35.25l3.23-.51A1.42,1.42,0,0,0,91.5,33l-.18-.54A1.43,1.43,0,0,0,89.19,32l-2.84,1.78C85.1,34.54,85.43,35.4,86.89,35.25Z"/><path class="cls-3" d="M119.29,32.3l-1.79-2.73a1.43,1.43,0,0,0-2.12-.55l-.42.39a1.43,1.43,0,0,0,.41,2.15l2.8,1.84C119.39,34.23,120,33.57,119.29,32.3Z"/><path class="cls-3" d="M140.47,24.78l3.19-.6c.94-.14,1.66-.88,1.45-1.51l-.15-.44c-.21-.62-1.24-.78-2.06-.31L140,23.57C138.74,24.28,139,25,140.47,24.78Z"/><path class="cls-3" d="M124.71,9.32l-.21,3.25a1.43,1.43,0,0,0,1.37,1.72l.57-.06a1.44,1.44,0,0,0,1-2L126.27,9.1C125.79,7.71,124.88,7.85,124.71,9.32Z"/><path class="cls-3" d="M160.63,43.13l-1.8-2.73a1.44,1.44,0,0,0-2.12-.55l-.42.4a1.44,1.44,0,0,0,.42,2.15l2.8,1.84C160.73,45.06,161.37,44.4,160.63,43.13Z"/><path class="cls-3" d="M181.8,35.61,185,35c.93-.14,1.65-.88,1.44-1.5l-.15-.45c-.21-.62-1.23-.77-2.06-.31l-2.88,1.65C180.08,35.12,180.36,35.82,181.8,35.61Z"/><path class="cls-3" d="M166,20.15l-.2,3.26a1.42,1.42,0,0,0,1.36,1.71l.57-.06a1.43,1.43,0,0,0,1-2l-1.13-3.15C167.12,18.55,166.21,18.69,166,20.15Z"/><path class="cls-3" d="M135.79,34.3,134,31.57a1.43,1.43,0,0,0-2.12-.55l-.42.39a1.43,1.43,0,0,0,.41,2.15l2.8,1.84C135.89,36.23,136.54,35.57,135.79,34.3Z"/><path class="cls-3" d="M179.15,46l-2.92-1.46a1.44,1.44,0,0,0-2.12.59l-.16.55a1.43,1.43,0,0,0,1.44,1.65l3.34.19C180.2,47.62,180.43,46.72,179.15,46Z"/><path class="cls-3" d="M172.26,35.62l1.08-3.08a1.43,1.43,0,0,0-.84-2l-.56-.09a1.44,1.44,0,0,0-1.47,1.63l.23,3.34C170.78,36.86,171.7,37,172.26,35.62Z"/><path class="cls-3" d="M157,26.78l3.19-.6c.94-.14,1.66-.88,1.45-1.51l-.15-.44c-.21-.62-1.24-.78-2.06-.31l-2.88,1.65C155.24,26.28,155.52,27,157,26.78Z"/><path class="cls-3" d="M141.21,11.32,141,14.57a1.43,1.43,0,0,0,1.37,1.72l.57-.06a1.44,1.44,0,0,0,1-2l-1.13-3.16C142.29,9.71,141.38,9.85,141.21,11.32Z"/><path class="cls-3" d="M81.71,28.63l-1.8-2.73a1.44,1.44,0,0,0-2.12-.55l-.41.4a1.43,1.43,0,0,0,.41,2.15l2.8,1.84C81.81,30.56,82.46,29.9,81.71,28.63Z"/><path class="cls-3" d="M102.89,21.11l3.19-.6c.94-.14,1.66-.88,1.45-1.5l-.15-.45c-.22-.62-1.24-.77-2.07-.31l-2.88,1.65C101.16,20.62,101.44,21.32,102.89,21.11Z"/><path class="cls-3" d="M87.13,5.65l-.21,3.26a1.42,1.42,0,0,0,1.36,1.71l.57-.06a1.44,1.44,0,0,0,1-2L88.69,5.44C88.21,4.05,87.29,4.19,87.13,5.65Z"/><path class="cls-3" d="M88.77,24.46l2.74-1.78a1.43,1.43,0,0,0,.56-2.12l-.39-.42a1.42,1.42,0,0,0-2.15.4l-1.86,2.79C86.84,24.54,87.5,25.19,88.77,24.46Z"/><path class="cls-3" d="M96.16,45.68l.58,3.19c.13.94.87,1.67,1.49,1.46l.45-.15c.62-.2.78-1.23.32-2.06l-1.63-2.89C96.66,44,96,44.23,96.16,45.68Z"/><path class="cls-3" d="M106.3,28.68l-3.25-.22a1.43,1.43,0,0,0-1.73,1.35l.06.57a1.43,1.43,0,0,0,2,1l3.15-1.11C107.9,29.77,107.77,28.86,106.3,28.68Z"/><path class="cls-3" d="M24.22,46.26l-1.2-3a1.44,1.44,0,0,0-2-1l-.49.3a1.43,1.43,0,0,0,0,2.19l2.37,2.37C23.92,48.17,24.69,47.65,24.22,46.26Z"/><path class="cls-3" d="M26.61,30.73l3.15-.85A1.42,1.42,0,0,0,31,28l-.24-.52a1.45,1.45,0,0,0-2.18-.28l-2.62,2.08C24.75,30.22,25.17,31,26.61,30.73Z"/></g></g></g></svg>