<svg xmlns="http://www.w3.org/2000/svg" viewBox="0 0 970.93 251.69"><defs><style>.cls-1{fill:#603813;}.cls-2{fill:#42210b;}</style></defs><title>TRAY</title><g id="Layer_2" data-name="Layer 2"><g id="TRAY"><path class="cls-1" d="M970.32,138c.44,13.44-16.75,24.57-38.72,24.57L711.94,161.1c-22,0-39.76,11-39.76,24.56v41.46c0,13.57-17.81,24.57-39.77,24.57H40.21c-22,0-39.76-11-39.76-24.57V48.92c0-13.57,17.81-24.56,39.77-24.56h592.2c22,0,39.76,11,39.76,24.56V87.41C672.17,101,690,112,711.94,112l191.95,1.1c19.75-19.11,31.72-11.21,42.67.25l23.92.14"/><path class="cls-2" d="M39.77,226.83C18.12,226.83.5,216,.5,202.77V24.56C.5,11.29,18.12.5,39.77.5H632c21.65,0,39.27,10.79,39.27,24.06V63.05c0,13.82,18.06,25.06,40.27,25.06L931.16,89.6c21.65,0,39.27,10.8,39.27,24.07s-17.62,24.06-39.27,24.06L711.5,136.24c-22.21,0-40.27,11.24-40.27,25.06v41.47c0,13.27-17.62,24.06-39.27,24.06ZM926.1,103c-10.64,0-19.3,5.44-19.3,12.12s8.66,12.1,19.3,12.1,19.29-5.43,19.29-12.1S936.74,103,926.1,103Z"/><path class="cls-1" d="M632,0V1c21.38,0,38.77,10.57,38.77,23.56V63.05c0,14.09,18.29,25.56,40.76,25.56L931.16,90.1c21.38,0,38.77,10.57,38.77,23.57s-17.39,23.56-38.76,23.56L711.5,135.74c-10.81,0-21,2.61-28.65,7.34s-12.12,11.3-12.12,18.22v41.47c0,13-17.39,23.56-38.77,23.56H39.77C18.39,226.33,1,215.76,1,202.77V24.56C1,11.57,18.39,1,39.77,1H632V0M926.1,127.76c10.91,0,19.79-5.65,19.79-12.6S937,102.55,926.1,102.55s-19.8,5.65-19.8,12.61,8.88,12.6,19.8,12.6M632,0H39.77C17.81,0,0,11,0,24.56V202.77c0,13.56,17.81,24.56,39.77,24.56H632c22,0,39.77-11,39.77-24.56V161.3c0-13.56,17.81-24.56,39.77-24.56l219.66,1.49c22,0,39.77-11,39.77-24.56S953.12,89.1,931.16,89.1L711.5,87.61h0c-22,0-39.77-11-39.77-24.56V24.56C671.73,11,653.93,0,632,0ZM926.1,126.76c-10.38,0-18.8-5.19-18.8-11.6s8.42-11.61,18.8-11.61,18.79,5.19,18.79,11.61-8.41,11.6-18.79,11.6Z"/></g></g></svg>